<svg width="2429" height="990" viewBox="0 0 2429 990" fill="none" xmlns="http://www.w3.org/2000/svg">
<g clip-path="url(#clip0_112_81768)">
<path d="M373.085 745.055H157.86C157.052 745.055 156.278 744.803 155.706 744.354C155.134 743.904 154.814 743.295 154.814 742.659V616.477C154.814 615.841 155.134 615.233 155.706 614.783C156.278 614.333 157.052 614.082 157.86 614.082H373.085C373.893 614.082 374.667 614.333 375.239 614.783C375.811 615.233 376.131 615.841 376.131 616.477V742.659C376.131 743.295 375.811 743.904 375.239 744.354C374.667 744.803 373.893 745.055 373.085 745.055ZM157.86 615.805C157.635 615.81 157.422 615.881 157.262 616.007C157.102 616.132 157.012 616.299 157.006 616.477V742.659C157.012 742.837 157.102 743.004 157.262 743.13C157.422 743.256 157.635 743.326 157.86 743.332H369.82C370.043 743.326 370.254 743.254 370.409 743.128C370.565 743.002 370.653 742.835 370.653 742.659V616.477C370.653 616.301 370.565 616.134 370.409 616.008C370.254 615.882 370.043 615.81 369.82 615.805H157.86Z" fill="#1FD763"/>
<path opacity="0.2" d="M373.085 745.055H157.86C157.052 745.055 156.278 744.803 155.706 744.354C155.134 743.904 154.814 743.295 154.814 742.659V616.477C154.814 615.841 155.134 615.233 155.706 614.783C156.278 614.333 157.052 614.082 157.86 614.082H373.085C373.893 614.082 374.667 614.333 375.239 614.783C375.811 615.233 376.131 615.841 376.131 616.477V742.659C376.131 743.295 375.811 743.904 375.239 744.354C374.667 744.803 373.893 745.055 373.085 745.055ZM157.86 615.805C157.635 615.81 157.422 615.881 157.262 616.007C157.102 616.132 157.012 616.299 157.006 616.477V742.659C157.012 742.837 157.102 743.004 157.262 743.13C157.422 743.256 157.635 743.326 157.86 743.332H369.82C370.043 743.326 370.254 743.254 370.409 743.128C370.565 743.002 370.653 742.835 370.653 742.659V616.477C370.653 616.301 370.565 616.134 370.409 616.008C370.254 615.882 370.043 615.81 369.82 615.805H157.86Z" fill="black"/>
<path d="M369.382 745.055H157.86C157.052 745.055 156.278 744.803 155.706 744.354C155.134 743.904 154.814 743.295 154.814 742.659V616.477C154.814 615.841 155.134 615.233 155.706 614.783C156.278 614.333 157.052 614.082 157.86 614.082H369.382C370.19 614.082 370.964 614.333 371.536 614.783C372.108 615.233 372.427 615.841 372.427 616.477V742.659C372.427 743.295 372.108 743.904 371.536 744.354C370.964 744.803 370.19 745.055 369.382 745.055ZM157.86 615.805C157.746 615.803 157.635 615.819 157.529 615.851C157.424 615.884 157.33 615.934 157.249 615.996C157.17 616.06 157.107 616.134 157.065 616.217C157.023 616.299 157.004 616.387 157.006 616.477V742.659C157.004 742.749 157.023 742.837 157.065 742.92C157.107 743.002 157.17 743.076 157.249 743.14C157.33 743.202 157.424 743.252 157.529 743.285C157.635 743.318 157.746 743.333 157.86 743.332H369.382C369.607 743.332 369.826 743.261 369.986 743.135C370.146 743.009 370.236 742.837 370.236 742.659V616.477C370.236 616.299 370.146 616.127 369.986 616.001C369.826 615.876 369.607 615.805 369.382 615.805H157.86Z" fill="#1FD763"/>
<path d="M369.165 633.9H157.862V635.623H369.165V633.9Z" fill="#1FD763"/>
<path d="M172.344 627.007C174.159 627.007 175.631 625.849 175.631 624.422C175.631 622.995 174.159 621.837 172.344 621.837C170.53 621.837 169.058 622.995 169.058 624.422C169.058 625.849 170.53 627.007 172.344 627.007Z" fill="#1FD763"/>
<path d="M183.301 627.007C185.115 627.007 186.587 625.849 186.587 624.422C186.587 622.995 185.115 621.837 183.301 621.837C181.486 621.837 180.014 622.995 180.014 624.422C180.014 625.849 181.486 627.007 183.301 627.007Z" fill="#1FD763"/>
<path d="M194.257 627.007C196.071 627.007 197.543 625.849 197.543 624.422C197.543 622.995 196.071 621.837 194.257 621.837C192.442 621.837 190.97 622.995 190.97 624.422C190.97 625.849 192.442 627.007 194.257 627.007Z" fill="#1FD763"/>
<path d="M235.273 683.877L243.271 685.876C242.392 688.94 240.24 691.687 237.157 693.683C234.004 695.459 230.187 696.357 226.31 696.233C223.799 696.295 221.299 695.932 218.983 695.168C216.664 694.403 214.583 693.257 212.878 691.804C209.219 688.506 207.339 684.215 207.641 679.844C207.641 674.502 209.401 670.349 212.922 667.385C214.688 665.909 216.838 664.751 219.224 663.988C221.608 663.223 224.176 662.871 226.749 662.956C231.23 662.79 235.612 664.029 238.932 666.402C240.99 668.034 242.438 670.078 243.117 672.313L234.944 673.847C234.567 672.286 233.491 670.883 231.911 669.894C230.331 668.903 228.35 668.393 226.332 668.453C224.939 668.419 223.554 668.632 222.278 669.077C221.005 669.521 219.873 670.187 218.97 671.021C217.085 672.732 216.143 675.501 216.143 679.327C216.143 683.394 217.063 686.221 218.926 687.944C219.802 688.783 220.913 689.454 222.169 689.905C223.427 690.357 224.798 690.575 226.179 690.546C228.274 690.56 230.296 689.943 231.832 688.823C233.592 687.489 234.793 685.762 235.273 683.877Z" fill="#1FD763"/>
<path d="M248.267 685.168L256.287 684.547C256.552 686.324 257.59 687.973 259.223 689.217C260.914 690.281 263.044 690.815 265.205 690.717C267.341 690.834 269.465 690.365 271.209 689.39C271.823 689.026 272.32 688.557 272.671 688.021C273.019 687.484 273.21 686.891 273.225 686.288C273.249 685.579 272.944 684.888 272.37 684.34C271.553 683.684 270.534 683.203 269.412 682.944C268.448 682.686 266.235 682.221 262.838 681.549C259.475 681.064 256.295 679.98 253.548 678.378C251.556 677.044 250.252 675.181 249.884 673.144C249.518 671.105 250.112 669.032 251.553 667.314C252.82 665.849 254.612 664.713 256.703 664.057C259.264 663.273 261.999 662.897 264.745 662.954C268.886 662.716 272.997 663.652 276.337 665.59C277.618 666.475 278.646 667.564 279.349 668.786C280.053 670.007 280.414 671.333 280.412 672.673L272.173 672.966C272.022 671.607 271.244 670.338 269.982 669.399C268.439 668.589 266.596 668.208 264.745 668.313C262.768 668.231 260.807 668.634 259.135 669.468C258.723 669.689 258.386 669.987 258.156 670.337C257.928 670.686 257.812 671.074 257.82 671.467C257.823 671.844 257.934 672.215 258.147 672.553C258.36 672.891 258.668 673.185 259.048 673.414C261.379 674.504 263.952 675.234 266.629 675.569C269.701 676.061 272.686 676.837 275.526 677.878C277.386 678.622 278.946 679.755 280.04 681.152C281.173 682.739 281.738 684.539 281.681 686.358C281.622 688.177 280.942 689.952 279.711 691.492C278.398 693.105 276.475 694.353 274.211 695.06C271.373 695.909 268.349 696.307 265.315 696.231C261.048 696.459 256.819 695.461 253.416 693.422C250.401 691.303 248.554 688.342 248.267 685.168Z" fill="#1FD763"/>
<path d="M286.333 685.168L294.353 684.547C294.616 686.324 295.655 687.973 297.289 689.217C298.979 690.281 301.109 690.815 303.271 690.717C305.406 690.834 307.529 690.365 309.275 689.39C309.887 689.026 310.386 688.557 310.735 688.021C311.083 687.484 311.274 686.891 311.291 686.288C311.313 685.579 311.009 684.888 310.437 684.34C309.617 683.684 308.598 683.203 307.479 682.944C306.514 682.686 304.301 682.221 300.905 681.549C297.539 681.064 294.36 679.98 291.614 678.378C289.62 677.044 288.316 675.181 287.948 673.144C287.582 671.105 288.176 669.032 289.62 667.314C290.867 665.856 292.635 664.724 294.704 664.057C297.263 663.273 299.998 662.897 302.746 662.954C306.885 662.716 310.998 663.652 314.337 665.59C315.617 666.475 316.645 667.564 317.348 668.786C318.051 670.007 318.413 671.333 318.413 672.673L310.174 672.966C310.02 671.607 309.243 670.338 307.983 669.399C306.425 668.605 304.573 668.241 302.724 668.365C300.745 668.281 298.784 668.684 297.114 669.52C296.7 669.74 296.362 670.038 296.132 670.388C295.904 670.738 295.788 671.126 295.799 671.519C295.799 671.896 295.911 672.267 296.124 672.604C296.336 672.942 296.645 673.237 297.026 673.466C299.356 674.555 301.928 675.286 304.608 675.62C307.678 676.113 310.663 676.889 313.505 677.93C315.363 678.674 316.925 679.808 318.019 681.204C319.149 682.791 319.715 684.59 319.658 686.41C319.598 688.228 318.919 690.003 317.69 691.544C316.377 693.157 314.453 694.405 312.19 695.111C309.352 695.961 306.328 696.359 303.293 696.283C299.025 696.51 294.796 695.513 291.395 693.474C288.395 691.33 286.578 688.349 286.333 685.168Z" fill="#1FD763"/>
<path d="M2424.29 521.973H2063.15C2060.3 521.973 2058 520.905 2058 519.578V393.395C2058 392.068 2060.3 391 2063.15 391H2424.29C2427.12 391 2429.42 392.068 2429.42 393.395V519.578C2429.42 520.905 2427.12 521.973 2424.29 521.973ZM2063.13 392.723C2062.34 392.723 2061.7 393.034 2061.7 393.395V519.578C2061.7 519.94 2062.34 520.25 2063.13 520.25H2418.81C2419.58 520.25 2420.21 519.94 2420.21 519.578V393.395C2420.21 393.034 2419.58 392.723 2418.81 392.723H2063.13Z" fill="#1FD763"/>
<path opacity="0.2" d="M2424.29 521.973H2063.15C2060.3 521.973 2058 520.905 2058 519.578V393.395C2058 392.068 2060.3 391 2063.15 391H2424.29C2427.12 391 2429.42 392.068 2429.42 393.395V519.578C2429.42 520.905 2427.12 521.973 2424.29 521.973ZM2063.13 392.723C2062.34 392.723 2061.7 393.034 2061.7 393.395V519.578C2061.7 519.94 2062.34 520.25 2063.13 520.25H2418.81C2419.58 520.25 2420.21 519.94 2420.21 519.578V393.395C2420.21 393.034 2419.58 392.723 2418.81 392.723H2063.13Z" fill="black"/>
<path d="M2418.09 521.973H2063.11C2060.31 521.973 2058.03 520.905 2058.03 519.578V393.395C2058.03 392.068 2060.22 391 2063.11 391H2418.09C2420.9 391 2423.18 392.068 2423.18 393.395V519.578C2423.18 520.905 2420.9 521.973 2418.09 521.973ZM2063.11 392.723C2062.34 392.723 2061.71 393.016 2061.71 393.395V519.578C2061.71 519.957 2062.34 520.25 2063.11 520.25H2418.09C2418.86 520.25 2419.49 519.957 2419.49 519.578V393.395C2419.49 393.016 2418.86 392.723 2418.09 392.723H2063.11Z" fill="#1FD763"/>
<path d="M2417.72 410.818H2063.13V412.542H2417.72V410.818Z" fill="#1FD763"/>
<path d="M2074.43 403.925C2076.25 403.925 2077.72 402.767 2077.72 401.34C2077.72 399.913 2076.25 398.755 2074.43 398.755C2072.62 398.755 2071.15 399.913 2071.15 401.34C2071.15 402.767 2072.62 403.925 2074.43 403.925Z" fill="#1FD763"/>
<path d="M2085.39 403.925C2087.2 403.925 2088.68 402.767 2088.68 401.34C2088.68 399.913 2087.2 398.755 2085.39 398.755C2083.58 398.755 2082.1 399.913 2082.1 401.34C2082.1 402.767 2083.58 403.925 2085.39 403.925Z" fill="#1FD763"/>
<path d="M2096.35 403.925C2098.16 403.925 2099.63 402.767 2099.63 401.34C2099.63 399.913 2098.16 398.755 2096.35 398.755C2094.53 398.755 2093.06 399.913 2093.06 401.34C2093.06 402.767 2094.53 403.925 2096.35 403.925Z" fill="#1FD763"/>
<path d="M2096.39 446.765H2103.82V465.136C2103.91 467.007 2103.63 468.879 2103.01 470.685C2102.31 472.346 2100.93 473.778 2099.09 474.752C2096.84 475.845 2094.23 476.379 2091.59 476.286C2090.05 476.365 2088.51 476.191 2087.06 475.776C2085.61 475.36 2084.29 474.712 2083.18 473.873C2081.05 471.922 2079.98 469.391 2080.2 466.825L2087.23 466.187C2087.2 467.376 2087.52 468.555 2088.15 469.634C2088.55 470.08 2089.06 470.451 2089.66 470.719C2090.26 470.99 2090.93 471.152 2091.62 471.193C2092.31 471.236 2093 471.159 2093.65 470.968C2094.3 470.775 2094.88 470.473 2095.36 470.082C2096.23 468.639 2096.59 467.037 2096.39 465.446V446.765Z" fill="#1FD763"/>
<path d="M2145.04 475.786H2136.89L2133.67 469.203H2118.9L2115.85 475.786H2107.96L2122.34 446.765H2130.31L2145.04 475.786ZM2131.3 464.24L2126.22 453.469L2121.24 464.24H2131.3Z" fill="#1FD763"/>
<path d="M2154.57 475.786L2141.42 446.765H2149.51L2158.8 468.238L2167.83 446.765H2175.74L2162.59 475.786H2154.57Z" fill="#1FD763"/>
<path d="M2209 475.786H2200.89L2197.67 469.203H2182.9L2179.85 475.786H2171.94L2186.32 446.765H2194.19L2209 475.786ZM2195.28 464.24L2190.2 453.469L2185.2 464.24H2195.28Z" fill="#1FD763"/>
<path d="M2211.06 466.346L2218.32 465.794C2218.54 467.402 2219.48 468.898 2220.97 470.016C2222.5 470.963 2224.41 471.44 2226.36 471.361C2228.29 471.474 2230.22 471.047 2231.79 470.154C2232.34 469.829 2232.8 469.408 2233.11 468.924C2233.43 468.44 2233.6 467.905 2233.61 467.363C2233.63 466.734 2233.36 466.122 2232.84 465.639C2232.1 465.046 2231.18 464.612 2230.17 464.381C2229.29 464.14 2227.3 463.726 2224.21 463.123C2221.16 462.682 2218.28 461.696 2215.8 460.245C2214.72 459.528 2213.85 458.632 2213.27 457.622C2212.68 456.612 2212.38 455.513 2212.4 454.403C2212.4 452.924 2212.95 451.479 2214 450.25C2215.12 448.928 2216.72 447.906 2218.6 447.32C2220.91 446.6 2223.37 446.255 2225.85 446.303C2229.6 446.091 2233.31 446.941 2236.33 448.699C2237.49 449.495 2238.42 450.477 2239.05 451.58C2239.69 452.683 2240.01 453.881 2240.01 455.092L2232.56 455.351C2232.4 454.119 2231.67 452.976 2230.5 452.145C2229.11 451.413 2227.45 451.067 2225.79 451.163C2223.99 451.079 2222.21 451.448 2220.71 452.214C2220.35 452.406 2220.05 452.662 2219.84 452.962C2219.64 453.262 2219.53 453.597 2219.52 453.938C2219.53 454.27 2219.63 454.598 2219.82 454.896C2220.01 455.194 2220.28 455.456 2220.62 455.661C2222.73 456.643 2225.05 457.303 2227.48 457.608C2230.25 458.074 2232.94 458.798 2235.5 459.763C2237.16 460.442 2238.57 461.458 2239.57 462.709C2240.58 464.14 2241.09 465.756 2241.04 467.394C2240.99 469.029 2240.38 470.625 2239.29 472.015C2238.09 473.477 2236.34 474.607 2234.29 475.255C2231.73 476.015 2229.01 476.374 2226.27 476.307C2222.41 476.51 2218.59 475.603 2215.51 473.756C2212.87 471.828 2211.28 469.174 2211.06 466.346Z" fill="#1FD763"/>
<path d="M2270.95 465.121L2278.18 466.844C2277.38 469.62 2275.43 472.107 2272.64 473.91C2269.3 475.673 2265.3 476.472 2261.31 476.174C2257.31 475.874 2253.57 474.497 2250.72 472.272C2247.41 469.296 2245.71 465.417 2245.99 461.467C2245.71 457.388 2247.45 453.381 2250.83 450.283C2252.43 448.949 2254.38 447.901 2256.53 447.208C2258.69 446.515 2261.01 446.195 2263.34 446.267C2267.38 446.143 2271.32 447.277 2274.3 449.421C2276.15 450.901 2277.45 452.747 2278.07 454.763L2270.68 456.159C2270.35 454.748 2269.38 453.478 2267.95 452.582C2266.52 451.687 2264.73 451.225 2262.91 451.282C2261.66 451.26 2260.43 451.456 2259.29 451.854C2258.15 452.254 2257.14 452.847 2256.33 453.592C2254.38 455.782 2253.47 458.443 2253.77 461.105C2253.77 464.776 2254.6 467.378 2256.29 468.946C2257.08 469.705 2258.09 470.31 2259.23 470.713C2260.37 471.116 2261.61 471.307 2262.86 471.273C2264.75 471.302 2266.58 470.773 2267.99 469.791C2269.57 468.512 2270.6 466.882 2270.95 465.121Z" fill="#1FD763"/>
<path d="M2284.57 475.79V446.769H2300.26C2303.17 446.664 2306.07 446.926 2308.87 447.544C2310.69 448.056 2312.24 449.042 2313.25 450.336C2314.34 451.703 2314.91 453.29 2314.88 454.903C2314.97 456.883 2314.1 458.815 2312.42 460.297C2310.47 461.844 2307.89 462.797 2305.12 462.985C2306.6 463.635 2307.94 464.454 2309.11 465.415C2310.71 466.887 2312.13 468.467 2313.36 470.137L2317.88 475.79H2308.96L2303.42 469.413C2302.23 467.924 2300.92 466.496 2299.49 465.139C2298.89 464.609 2298.14 464.195 2297.3 463.933C2296.08 463.668 2294.8 463.557 2293.53 463.606H2292.04V475.669L2284.57 475.79ZM2292.04 459.039H2297.54C2299.79 459.122 2302.04 459.006 2304.25 458.694C2305.14 458.487 2305.91 458.05 2306.44 457.453C2306.97 456.809 2307.24 456.051 2307.21 455.282C2307.26 454.424 2306.9 453.581 2306.2 452.921C2305.47 452.289 2304.47 451.885 2303.39 451.784C2302.78 451.784 2300.98 451.68 2297.96 451.68H2292.15L2292.04 459.039Z" fill="#1FD763"/>
<path d="M2321.57 475.786V446.765H2329.02V475.786H2321.57Z" fill="#1FD763"/>
<path d="M2336.12 475.786V446.765H2348.08C2351.01 446.674 2353.95 446.819 2356.85 447.196C2358.98 447.646 2360.85 448.647 2362.17 450.04C2363.69 451.677 2364.46 453.669 2364.36 455.692C2364.42 457.248 2364 458.791 2363.14 460.19C2362.39 461.326 2361.32 462.306 2360 463.051C2358.84 463.704 2357.53 464.171 2356.15 464.429C2353.59 464.75 2351 464.89 2348.41 464.843H2343.55V475.786H2336.12ZM2343.57 451.66V459.897H2347.64C2349.63 459.987 2351.62 459.83 2353.54 459.432C2354.48 459.163 2355.29 458.67 2355.86 458.019C2356.43 457.353 2356.73 456.564 2356.71 455.761C2356.76 454.801 2356.34 453.864 2355.53 453.142C2354.75 452.456 2353.69 451.999 2352.53 451.849C2350.75 451.687 2348.95 451.625 2347.16 451.66H2343.57Z" fill="#1FD763"/>
<path d="M2378.79 475.788V451.661H2367.84V446.75H2397.16V451.661H2386.2V475.788H2378.79Z" fill="#1FD763"/>
<path opacity="0.1" d="M935.735 366.475V393.048H385.008V103.046H421.755" fill="black"/>
<path d="M445.155 87.8461C445.155 88.5268 444.899 89.1938 444.417 89.7607C443.935 90.3277 443.251 90.7689 442.449 91.0291C441.649 91.2911 440.768 91.3582 439.918 91.2255C439.068 91.0928 438.286 90.7654 437.674 90.2829C437.061 89.8003 436.644 89.1869 436.473 88.5182C436.305 87.8496 436.392 87.1568 436.723 86.526C437.056 85.897 437.617 85.3576 438.338 84.9802C439.059 84.6011 439.905 84.3994 440.773 84.3994C441.934 84.3994 443.049 84.7614 443.871 85.4076C444.693 86.0539 445.155 86.931 445.155 87.8461Z" fill="#1FD763"/>
<path d="M460.296 87.8461C460.296 88.5268 460.04 89.1938 459.558 89.7607C459.076 90.3277 458.392 90.7689 457.592 91.0291C456.79 91.2911 455.909 91.3582 455.059 91.2255C454.209 91.0928 453.429 90.7654 452.815 90.2829C452.202 89.8003 451.785 89.1869 451.617 88.5182C451.446 87.8496 451.533 87.1568 451.864 86.526C452.197 85.897 452.758 85.3576 453.479 84.9802C454.2 84.6011 455.048 84.3994 455.914 84.3994C457.077 84.3994 458.19 84.7614 459.012 85.4076C459.834 86.0539 460.296 86.931 460.296 87.8461Z" fill="#1FD763"/>
<path d="M475.217 87.8461C475.217 88.5268 474.958 89.1938 474.478 89.7607C473.996 90.3277 473.312 90.7689 472.51 91.0291C471.711 91.2911 470.83 91.3582 469.98 91.2255C469.129 91.0928 468.347 90.7654 467.736 90.2829C467.122 89.8003 466.704 89.1869 466.535 88.5182C466.366 87.8496 466.454 87.1568 466.785 86.526C467.116 85.897 467.679 85.3576 468.4 84.9802C469.121 84.6011 469.966 84.3994 470.834 84.3994C471.995 84.3994 473.111 84.7614 473.933 85.4076C474.754 86.0539 475.217 86.931 475.217 87.8461Z" fill="#1FD763"/>
<path d="M422.19 74.0425V366.01H975.437V74.0425H422.19ZM972.939 76.0071V99.9097H424.688V76.0071H972.939ZM424.688 364.045V101.874H972.939V364.045H424.688Z" fill="#1FD763"/>
<path d="M618.787 131.135H471.886V246.667H618.787V131.135Z" fill="#1FD763"/>
<path d="M550.133 285.631H481.087V339.934H550.133V285.631Z" fill="#1FD763"/>
<path d="M675.344 285.631H606.298V339.934H675.344V285.631Z" fill="#1FD763"/>
<path d="M800.554 285.631H731.508V339.934H800.554V285.631Z" fill="#1FD763"/>
<path d="M925.762 285.631H856.716V339.934H925.762V285.631Z" fill="#1FD763"/>
<g opacity="0.6">
<path opacity="0.6" d="M899.581 151.746H643.642C643.312 151.742 642.998 151.637 642.766 151.453C642.532 151.27 642.398 151.024 642.394 150.764C642.394 150.634 642.424 150.507 642.488 150.388C642.551 150.269 642.643 150.16 642.759 150.069C642.876 149.978 643.011 149.905 643.165 149.857C643.316 149.807 643.478 149.781 643.642 149.781H899.581C899.745 149.78 899.909 149.804 900.06 149.852C900.214 149.9 900.354 149.973 900.47 150.064C900.586 150.155 900.678 150.266 900.74 150.384C900.801 150.505 900.832 150.634 900.83 150.764C900.83 150.893 900.797 151.02 900.733 151.139C900.672 151.258 900.58 151.367 900.464 151.458C900.347 151.549 900.209 151.622 900.058 151.672C899.907 151.72 899.745 151.746 899.581 151.746Z" fill="#1FD763"/>
<path opacity="0.6" d="M899.581 173.355H643.642C643.312 173.351 642.998 173.246 642.766 173.062C642.532 172.879 642.398 172.633 642.394 172.373C642.394 172.243 642.424 172.116 642.488 171.997C642.551 171.878 642.643 171.769 642.759 171.678C642.876 171.587 643.011 171.514 643.165 171.466C643.316 171.416 643.478 171.39 643.642 171.39H899.581C899.745 171.388 899.909 171.413 900.06 171.461C900.214 171.509 900.354 171.582 900.47 171.673C900.586 171.764 900.678 171.874 900.74 171.995C900.801 172.114 900.832 172.243 900.83 172.373C900.83 172.633 900.698 172.883 900.464 173.067C900.229 173.251 899.911 173.355 899.581 173.355Z" fill="#1FD763"/>
<path opacity="0.6" d="M899.581 194.967H643.642C643.312 194.964 642.998 194.859 642.766 194.674C642.532 194.492 642.398 194.245 642.394 193.985C642.394 193.725 642.525 193.475 642.759 193.29C642.994 193.106 643.312 193.003 643.642 193.003H899.581C899.745 193.001 899.909 193.025 900.06 193.073C900.214 193.121 900.354 193.194 900.47 193.285C900.586 193.376 900.678 193.487 900.74 193.607C900.801 193.726 900.832 193.856 900.83 193.985C900.83 194.245 900.698 194.495 900.464 194.679C900.229 194.864 899.911 194.967 899.581 194.967Z" fill="#1FD763"/>
<path opacity="0.6" d="M792.056 216.576H643.642C643.478 216.576 643.316 216.55 643.165 216.502C643.011 216.452 642.876 216.38 642.759 216.288C642.643 216.197 642.551 216.09 642.488 215.969C642.424 215.85 642.394 215.723 642.394 215.594C642.398 215.335 642.532 215.087 642.766 214.904C642.998 214.722 643.312 214.616 643.642 214.611H792.056C792.385 214.616 792.7 214.722 792.932 214.904C793.165 215.087 793.298 215.335 793.305 215.594C793.305 215.723 793.272 215.85 793.209 215.969C793.147 216.09 793.055 216.197 792.939 216.288C792.823 216.38 792.685 216.452 792.534 216.502C792.382 216.55 792.22 216.576 792.056 216.576Z" fill="#1FD763"/>
</g>
<path d="M1137.59 556.626H1401.2C1404.55 556.626 1407.77 557.674 1410.14 559.538C1412.51 561.403 1413.84 563.933 1413.84 566.57C1413.84 569.206 1412.51 571.736 1410.14 573.601C1407.77 575.466 1404.55 576.513 1401.2 576.513H1137.59" fill="#868A91"/>
<path opacity="0.2" d="M1137.59 556.626H1401.2C1404.55 556.626 1407.77 557.674 1410.14 559.538C1412.51 561.403 1413.84 563.933 1413.84 566.57C1413.84 569.206 1412.51 571.736 1410.14 573.601C1407.77 575.466 1404.55 576.513 1401.2 576.513H1137.59" fill="black"/>
<path d="M471.273 556.628H1260.3C1262.05 556.512 1263.81 556.684 1265.47 557.133C1267.13 557.579 1268.65 558.294 1269.94 559.228C1271.23 560.162 1272.26 561.298 1272.97 562.561C1273.68 563.826 1274.04 565.191 1274.04 566.571C1274.04 567.952 1273.68 569.317 1272.97 570.58C1272.26 571.843 1271.23 572.979 1269.94 573.913C1268.65 574.848 1267.13 575.562 1265.47 576.01C1263.81 576.456 1262.05 576.629 1260.3 576.515H471.273C469.524 576.629 467.764 576.456 466.103 576.01C464.445 575.562 462.92 574.848 461.629 573.913C460.338 572.979 459.306 571.843 458.601 570.58C457.897 569.317 457.531 567.952 457.531 566.571C457.531 565.191 457.897 563.826 458.601 562.561C459.306 561.298 460.338 560.162 461.629 559.228C462.92 558.294 464.445 557.579 466.103 557.133C467.764 556.684 469.524 556.512 471.273 556.628Z" fill="#868A91"/>
<path d="M499.954 576.72H486.96V989.613H499.954V576.72Z" fill="#868A91"/>
<path d="M1249.71 576.511H1236.72V989.63H1249.71V576.511Z" fill="#868A91"/>
<path d="M972.28 576.063L1236.72 576.511V643.394L972.28 642.946V576.063Z" fill="#868A91"/>
<path opacity="0.2" d="M1226.38 636.156L983.15 635.811V584.835L1226.38 585.162V636.156ZM985.144 634.26L1224.41 634.588V586.713L985.144 586.386V634.26Z" fill="black"/>
<path d="M1111.29 608.479C1111.64 609.637 1111.49 610.852 1110.88 611.938C1110.27 613.025 1109.22 613.926 1107.9 614.502C1106.58 615.079 1105.05 615.302 1103.56 615.136C1102.06 614.969 1100.67 614.423 1099.61 613.58C1098.54 612.739 1097.85 611.645 1097.65 610.468C1097.44 609.291 1097.73 608.091 1098.47 607.054C1099.21 606.018 1100.36 605.199 1101.74 604.722C1103.13 604.245 1104.67 604.136 1106.14 604.412C1107.4 604.648 1108.54 605.153 1109.45 605.872C1110.36 606.59 1111 607.493 1111.29 608.479Z" fill="#61656D"/>
<path opacity="0.2" d="M1111.3 608.481C1111.01 607.493 1110.37 606.589 1109.46 605.87C1108.55 605.151 1107.4 604.646 1106.15 604.414C1105.29 604.285 1104.4 604.285 1103.54 604.414H1104.18C1105.75 604.698 1107.16 605.408 1108.14 606.421C1109.12 607.435 1109.62 608.686 1109.55 609.958C1109.48 611.23 1108.84 612.443 1107.75 613.385C1106.66 614.328 1105.19 614.94 1103.58 615.116C1104.7 615.24 1105.83 615.148 1106.89 614.849C1107.96 614.55 1108.91 614.052 1109.67 613.398C1110.42 612.744 1110.97 611.955 1111.26 611.099C1111.54 610.24 1111.55 609.343 1111.3 608.481Z" fill="black"/>
<path d="M972.28 636.38L1236.72 636.828V703.71L972.28 703.262V636.38Z" fill="#868A91"/>
<path opacity="0.2" d="M1226.38 696.472L983.15 696.128V645.151L1226.38 645.479V696.472ZM985.144 694.577L1224.41 694.904V647.03L985.144 646.702V694.577Z" fill="black"/>
<path d="M1111.29 668.796C1111.64 669.954 1111.49 671.169 1110.88 672.254C1110.27 673.342 1109.22 674.243 1107.9 674.819C1106.58 675.396 1105.05 675.618 1103.56 675.453C1102.06 675.286 1100.67 674.74 1099.61 673.897C1098.54 673.056 1097.85 671.962 1097.65 670.785C1097.44 669.608 1097.73 668.408 1098.47 667.371C1099.21 666.335 1100.36 665.516 1101.74 665.039C1103.13 664.562 1104.67 664.453 1106.14 664.729C1107.4 664.965 1108.54 665.47 1109.45 666.188C1110.36 666.907 1111 667.81 1111.29 668.796Z" fill="#61656D"/>
<path opacity="0.2" d="M1111.3 668.797C1111.01 667.81 1110.37 666.905 1109.46 666.186C1108.55 665.468 1107.4 664.963 1106.15 664.73C1105.29 664.601 1104.4 664.601 1103.54 664.73H1104.18C1105.75 665.015 1107.16 665.725 1108.14 666.738C1109.12 667.751 1109.62 669.002 1109.55 670.274C1109.48 671.546 1108.84 672.759 1107.75 673.702C1106.66 674.645 1105.19 675.256 1103.58 675.432C1104.7 675.556 1105.83 675.465 1106.89 675.165C1107.96 674.867 1108.91 674.369 1109.67 673.714C1110.42 673.061 1110.97 672.271 1111.26 671.415C1111.54 670.557 1111.55 669.659 1111.3 668.797Z" fill="black"/>
<path d="M972.28 698.42L1236.72 698.868V765.75L972.28 765.302V698.42Z" fill="#868A91"/>
<path opacity="0.2" d="M1226.38 758.512L983.15 758.168V707.191L1226.38 707.519V758.512ZM985.144 756.617L1224.41 756.944V709.07L985.144 708.742V756.617Z" fill="black"/>
<path d="M1111.29 730.836C1111.64 731.994 1111.49 733.209 1110.88 734.295C1110.27 735.382 1109.22 736.283 1107.9 736.859C1106.58 737.436 1105.05 737.659 1103.56 737.493C1102.06 737.326 1100.67 736.78 1099.61 735.937C1098.54 735.096 1097.85 734.002 1097.65 732.825C1097.44 731.648 1097.73 730.448 1098.47 729.411C1099.21 728.375 1100.36 727.556 1101.74 727.079C1103.13 726.602 1104.67 726.493 1106.14 726.769C1107.4 727.005 1108.54 727.51 1109.45 728.228C1110.36 728.947 1111 729.85 1111.29 730.836Z" fill="#61656D"/>
<path d="M1003.92 950.993H973.246V988.906H1003.92V950.993Z" fill="#868A91"/>
<path opacity="0.2" d="M1003.92 950.993H988.585V988.838H1003.92V950.993Z" fill="black"/>
<path d="M1146.36 950.993H1115.68V988.906H1146.36V950.993Z" fill="#868A91"/>
<path opacity="0.2" d="M1146.35 950.993H1131.02V988.838H1146.35V950.993Z" fill="black"/>
<path opacity="0.2" d="M1111.3 730.837C1111.01 729.85 1110.37 728.945 1109.46 728.226C1108.55 727.508 1107.4 727.003 1106.15 726.77C1105.29 726.641 1104.4 726.641 1103.54 726.77H1104.18C1105.75 727.055 1107.16 727.765 1108.14 728.778C1109.12 729.791 1109.62 731.042 1109.55 732.314C1109.48 733.586 1108.84 734.799 1107.75 735.742C1106.66 736.685 1105.19 737.296 1103.58 737.472C1104.7 737.596 1105.83 737.505 1106.89 737.205C1107.96 736.907 1108.91 736.409 1109.67 735.754C1110.42 735.101 1110.97 734.312 1111.26 733.455C1111.54 732.597 1111.55 731.699 1111.3 730.837Z" fill="black"/>
<path d="M972.28 760.46L1236.72 760.908V827.791L972.28 827.343V760.46Z" fill="#868A91"/>
<path opacity="0.2" d="M1226.38 820.552L983.15 820.208V769.231L1226.38 769.559V820.552ZM985.144 818.657L1224.41 818.984V771.11L985.144 770.782V818.657Z" fill="black"/>
<path d="M1111.29 792.876C1111.64 794.034 1111.49 795.249 1110.88 796.335C1110.27 797.422 1109.22 798.323 1107.9 798.899C1106.58 799.476 1105.05 799.699 1103.56 799.533C1102.06 799.366 1100.67 798.82 1099.61 797.977C1098.54 797.136 1097.85 796.042 1097.65 794.865C1097.44 793.688 1097.73 792.488 1098.47 791.451C1099.21 790.415 1100.36 789.596 1101.74 789.119C1103.13 788.642 1104.67 788.533 1106.14 788.809C1107.4 789.045 1108.54 789.55 1109.45 790.269C1110.36 790.987 1111 791.89 1111.29 792.876Z" fill="#61656D"/>
<path opacity="0.2" d="M1111.3 792.877C1111.01 791.89 1110.37 790.985 1109.46 790.266C1108.55 789.548 1107.4 789.043 1106.15 788.81C1105.29 788.681 1104.4 788.681 1103.54 788.81H1104.18C1105.75 789.095 1107.16 789.805 1108.14 790.818C1109.12 791.831 1109.62 793.082 1109.55 794.354C1109.48 795.626 1108.84 796.839 1107.75 797.782C1106.66 798.725 1105.19 799.336 1103.58 799.512C1104.7 799.636 1105.83 799.545 1106.89 799.245C1107.96 798.947 1108.91 798.449 1109.67 797.794C1110.42 797.141 1110.97 796.352 1111.26 795.495C1111.54 794.637 1111.55 793.739 1111.3 792.877Z" fill="black"/>
<path d="M972.28 822.5L1236.72 822.948V889.831L972.28 889.383V822.5Z" fill="#868A91"/>
<path opacity="0.2" d="M1226.38 882.592L983.15 882.248V831.271L1226.38 831.599V882.592ZM985.144 880.697L1224.41 881.024V833.15L985.144 832.823V880.697Z" fill="black"/>
<path d="M1111.29 854.915C1111.64 856.074 1111.49 857.288 1110.88 858.374C1110.27 859.462 1109.22 860.363 1107.9 860.939C1106.58 861.516 1105.05 861.738 1103.56 861.573C1102.06 861.406 1100.67 860.859 1099.61 860.016C1098.54 859.175 1097.85 858.081 1097.65 856.904C1097.44 855.727 1097.73 854.528 1098.47 853.49C1099.21 852.455 1100.36 851.636 1101.74 851.159C1103.13 850.681 1104.67 850.573 1106.14 850.848C1107.4 851.084 1108.54 851.589 1109.45 852.308C1110.36 853.027 1111 853.93 1111.29 854.915Z" fill="#61656D"/>
<path opacity="0.2" d="M1111.3 854.917C1111.01 853.93 1110.37 853.025 1109.46 852.307C1108.55 851.588 1107.4 851.083 1106.15 850.85C1105.29 850.721 1104.4 850.721 1103.54 850.85H1104.18C1105.75 851.135 1107.16 851.845 1108.14 852.858C1109.12 853.871 1109.62 855.122 1109.55 856.394C1109.48 857.666 1108.84 858.879 1107.75 859.822C1106.66 860.765 1105.19 861.376 1103.58 861.552C1104.7 861.676 1105.83 861.585 1106.89 861.285C1107.96 860.987 1108.91 860.489 1109.67 859.834C1110.42 859.181 1110.97 858.392 1111.26 857.535C1111.54 856.677 1111.55 855.779 1111.3 854.917Z" fill="black"/>
<path d="M972.28 884.54L1236.72 884.988V951.871L972.28 951.423V884.54Z" fill="#868A91"/>
<path opacity="0.2" d="M1226.38 944.632L983.15 944.288V893.312L1226.38 893.639V944.632ZM985.144 942.737L1224.41 943.064V895.19L985.144 894.863V942.737Z" fill="black"/>
<path d="M1111.29 916.956C1111.64 918.114 1111.49 919.328 1110.88 920.414C1110.27 921.502 1109.22 922.403 1107.9 922.979C1106.58 923.556 1105.05 923.778 1103.56 923.613C1102.06 923.446 1100.67 922.899 1099.61 922.057C1098.54 921.216 1097.85 920.121 1097.65 918.944C1097.44 917.767 1097.73 916.568 1098.47 915.53C1099.21 914.495 1100.36 913.676 1101.74 913.199C1103.13 912.721 1104.67 912.613 1106.14 912.888C1107.4 913.124 1108.54 913.629 1109.45 914.348C1110.36 915.067 1111 915.97 1111.29 916.956Z" fill="#61656D"/>
<path opacity="0.2" d="M1111.3 916.957C1111.01 915.97 1110.37 915.065 1109.46 914.347C1108.55 913.628 1107.4 913.123 1106.15 912.89C1105.29 912.761 1104.4 912.761 1103.54 912.89H1104.18C1105.75 913.175 1107.16 913.885 1108.14 914.898C1109.12 915.911 1109.62 917.163 1109.55 918.434C1109.48 919.706 1108.84 920.919 1107.75 921.862C1106.66 922.805 1105.19 923.416 1103.58 923.592C1104.7 923.716 1105.83 923.625 1106.89 923.325C1107.96 923.027 1108.91 922.529 1109.67 921.874C1110.42 921.221 1110.97 920.432 1111.26 919.575C1111.54 918.717 1111.55 917.819 1111.3 916.957Z" fill="black"/>
<path opacity="0.2" d="M1387.02 576.511H972.28V582.181H1387.02V576.511Z" fill="black"/>
<path opacity="0.2" d="M637.81 576.511H487.534V582.181H637.81V576.511Z" fill="black"/>
<path opacity="0.2" d="M595.076 735.404H486.96V745.331H598.254L595.076 735.404Z" fill="black"/>
<path opacity="0.2" d="M637.262 735.404H606.475L604.722 745.331H637.262V735.404Z" fill="black"/>
<path d="M1249.69 576.511V989.613H1268.41V951.87H1357.37V989.613H1387.02V576.511H1249.69Z" fill="#868A91"/>
<path d="M499.937 576.72V989.613H519V951.872H607.965V989.613H637.262V576.72H499.937Z" fill="#868A91"/>
<path opacity="0.2" d="M499.937 576.72V989.613H519V951.872H607.965V989.613H637.262V576.72H499.937Z" fill="black"/>
<path opacity="0.2" d="M1249.69 576.511V989.613H1268.41V951.87H1357.37V989.613H1387.02V576.511H1249.69Z" fill="black"/>
<path d="M1369.87 951.872H1357.38V989.613H1369.87V951.872Z" fill="#868A91"/>
<path d="M620.457 951.872H607.967V989.613H620.457V951.872Z" fill="#868A91"/>
<path d="M954.838 554.575H891.62L837.672 384.447H900.889L954.838 554.575Z" fill="#3F4249"/>
<path opacity="0.2" d="M954.838 554.575H891.62L837.672 384.447H900.889L954.838 554.575Z" fill="black"/>
<path d="M950.455 554.575H887.259L833.289 384.447H896.507L950.455 554.575Z" fill="#3F4249"/>
<path opacity="0.2" d="M943.905 520.107H876.217L873.391 511.147H941.056L943.905 520.107Z" fill="black"/>
<path d="M1074.99 337.537H714.791V511.128H1074.99V337.537Z" fill="#3F4249"/>
<path opacity="0.7" d="M1062.39 345.535H727.391V503.116H1062.39V345.535Z" fill="black"/>
<path d="M1079.92 337.487H1074.97V511.113H1079.92V337.487Z" fill="#3F4249"/>
<path opacity="0.2" d="M1079.92 337.487H1074.97V511.113H1079.92V337.487Z" fill="black"/>
<path d="M1034.61 547.733H807.088V556.919H1034.61V547.733Z" fill="#3F4249"/>
<path d="M855.726 357.079H749.713V363.628H855.726V357.079Z" fill="#1FD763"/>
<path d="M830.745 368.248H749.713V374.797H830.745V368.248Z" fill="#1FD763"/>
<path d="M846.61 379.398H749.713V385.947H846.61V379.398Z" fill="#1FD763"/>
<path d="M828.094 390.567H749.713V397.116H828.094V390.567Z" fill="#1FD763"/>
<path d="M863.598 401.715H775.006V408.264H863.598V401.715Z" fill="#1FD763"/>
<path d="M855.71 415.142H775.006V421.69H855.71V415.142Z" fill="#1FD763"/>
<path d="M830.745 426.306H749.713V432.854H830.745V426.306Z" fill="#1FD763"/>
<path d="M846.61 437.457H749.713V444.006H846.61V437.457Z" fill="#1FD763"/>
<path d="M828.094 448.607H749.713V455.158H828.094V448.607Z" fill="#1FD763"/>
<path d="M863.614 459.776H749.713V466.325H863.614V459.776Z" fill="#1FD763"/>
<path d="M881.372 472.563H784.475V479.112H881.372V472.563Z" fill="#1FD763"/>
<path d="M863.614 485.351H749.713V491.899H863.614V485.351Z" fill="#1FD763"/>
<g opacity="0.2">
<path opacity="0.2" d="M855.726 357.079H749.713V363.628H855.726V357.079Z" fill="black"/>
<path opacity="0.2" d="M830.745 368.248H749.713V374.797H830.745V368.248Z" fill="black"/>
<path opacity="0.2" d="M846.61 379.395H749.713V385.943H846.61V379.395Z" fill="black"/>
<path opacity="0.2" d="M828.094 390.563H749.713V397.112H828.094V390.563Z" fill="black"/>
<path opacity="0.2" d="M863.59 401.715H774.998V408.264H863.59V401.715Z" fill="black"/>
<path opacity="0.2" d="M855.702 415.138H774.998V421.687H855.702V415.138Z" fill="black"/>
<path opacity="0.2" d="M830.745 426.306H749.713V432.854H830.745V426.306Z" fill="black"/>
<path opacity="0.2" d="M846.61 437.457H749.713V444.006H846.61V437.457Z" fill="black"/>
<path opacity="0.2" d="M828.094 448.605H749.713V455.154H828.094V448.605Z" fill="black"/>
<path opacity="0.2" d="M863.614 459.772H749.713V466.321H863.614V459.772Z" fill="black"/>
<path opacity="0.2" d="M881.363 472.56H784.466V479.108H881.363V472.56Z" fill="black"/>
<path opacity="0.2" d="M863.614 485.347H749.713V491.895H863.614V485.347Z" fill="black"/>
</g>
<path d="M1014.97 357.079H908.955V363.628H1014.97V357.079Z" fill="#1FD763"/>
<path d="M989.988 368.248H908.955V374.797H989.988V368.248Z" fill="#1FD763"/>
<path d="M1005.85 379.398H908.955V385.947H1005.85V379.398Z" fill="#1FD763"/>
<path d="M987.336 390.567H908.955V397.116H987.336V390.567Z" fill="#1FD763"/>
<path d="M1022.83 401.715H934.24V408.264H1022.83V401.715Z" fill="#1FD763"/>
<path d="M1014.94 415.142H934.24V421.69H1014.94V415.142Z" fill="#1FD763"/>
<path d="M989.988 426.306H908.955V432.854H989.988V426.306Z" fill="#1FD763"/>
<path d="M1005.85 437.457H908.955V444.006H1005.85V437.457Z" fill="#1FD763"/>
<path d="M987.336 448.607H908.955V455.158H987.336V448.607Z" fill="#1FD763"/>
<path d="M1022.86 459.776H908.955V466.325H1022.86V459.776Z" fill="#1FD763"/>
<path d="M1040.61 472.563H943.708V479.112H1040.61V472.563Z" fill="#1FD763"/>
<path d="M1022.86 485.351H908.955V491.899H1022.86V485.351Z" fill="#1FD763"/>
<path opacity="0.13" d="M2047.75 0.469727H1373.98V402.971H2047.75V0.469727Z" fill="black"/>
<path opacity="0.08" d="M2010.5 22.873H1336.73V425.375H2010.5V22.873Z" fill="black"/>
<path d="M1975.44 80.6758H1301.67V83.2608H1975.44V80.6758Z" fill="#1FD763"/>
<path d="M1977.08 455.964H1299.98V50.8774H1977.08V455.964ZM1303.31 453.379H1973.84V53.4624H1303.31V453.379Z" fill="#1FD763"/>
<path d="M1324.44 67.0611C1324.44 67.7694 1324.17 68.4639 1323.67 69.0533C1323.17 69.6426 1322.45 70.1011 1321.62 70.3734C1320.79 70.6439 1319.87 70.7146 1318.99 70.5767C1318.1 70.4388 1317.29 70.0976 1316.66 69.5961C1316.02 69.0946 1315.59 68.4553 1315.41 67.7608C1315.23 67.0645 1315.32 66.3442 1315.67 65.6893C1316.01 65.0344 1316.6 64.4744 1317.35 64.0815C1318.1 63.6868 1318.98 63.4766 1319.88 63.4766C1321.09 63.4766 1322.25 63.854 1323.1 64.5261C1323.96 65.1982 1324.44 66.1098 1324.44 67.0611Z" fill="#1FD763"/>
<path d="M1340.06 67.0611C1340.06 67.7694 1339.79 68.4639 1339.29 69.0533C1338.79 69.6426 1338.08 70.1011 1337.24 70.3734C1336.41 70.6439 1335.49 70.7146 1334.61 70.5767C1333.73 70.4388 1332.91 70.0976 1332.28 69.5961C1331.64 69.0946 1331.21 68.4553 1331.03 67.7608C1330.85 67.0645 1330.94 66.3442 1331.29 65.6893C1331.63 65.0344 1332.22 64.4744 1332.97 64.0815C1333.72 63.6868 1334.6 63.4766 1335.5 63.4766C1336.71 63.4766 1337.87 63.854 1338.72 64.5261C1339.58 65.1982 1340.06 66.1098 1340.06 67.0611Z" fill="#1FD763"/>
<path d="M1355.45 67.0611C1355.45 67.7694 1355.18 68.4639 1354.68 69.0533C1354.18 69.6426 1353.47 70.1011 1352.63 70.3734C1351.8 70.6439 1350.88 70.7146 1350 70.5767C1349.12 70.4388 1348.3 70.0976 1347.67 69.5961C1347.03 69.0946 1346.6 68.4553 1346.42 67.7608C1346.24 67.0645 1346.33 66.3442 1346.68 65.6893C1347.02 65.0344 1347.61 64.4744 1348.36 64.0815C1349.11 63.6868 1349.99 63.4766 1350.89 63.4766C1352.1 63.4766 1353.26 63.854 1354.11 64.5261C1354.97 65.1982 1355.45 66.1098 1355.45 67.0611Z" fill="#1FD763"/>
<path d="M1355.12 144.594H1331.89V151.263H1355.12V144.594Z" fill="#DADDDF"/>
<path d="M1716.89 144.594H1372.05V151.263H1716.89V144.594Z" fill="#DADDDF"/>
<path d="M1770.58 144.594H1730.02V151.263H1770.58V144.594Z" fill="#1FD763"/>
<path d="M1835.48 233.899H1794.92V240.568H1835.48V233.899Z" fill="#DADDDF"/>
<path d="M1916.12 144.594H1779.39V151.263H1916.12V144.594Z" fill="#B2B6BB"/>
<path d="M1378.34 162.448H1355.12V169.117H1378.34V162.448Z" fill="#DADDDF"/>
<path d="M1551.74 162.448H1394.71V169.117H1551.74V162.448Z" fill="#B2B6BB"/>
<path d="M1785.28 233.899H1724.47V240.568H1785.28V233.899Z" fill="#B2B6BB"/>
<path d="M1539.11 216.042H1372.05V222.711H1539.11V216.042Z" fill="#B2B6BB"/>
<path d="M1511.9 180.32H1394.71V186.99H1511.9V180.32Z" fill="#1FD763"/>
<path d="M1864.82 198.172H1757.12V204.842H1864.82V198.172Z" fill="#B2B6BB"/>
<path d="M1784.42 180.32H1523.25V186.99H1784.42V180.32Z" fill="#B2B6BB"/>
<path d="M1710.58 233.899H1372.05V240.568H1710.58V233.899Z" fill="#1FD763"/>
<path d="M1952.74 162.448H1774.85V169.117H1952.74V162.448Z" fill="#1FD763"/>
<path d="M1766.04 162.448H1563.68V169.117H1766.04V162.448Z" fill="#DADDDF"/>
<path d="M1928.24 180.32H1859.12V186.99H1928.24V180.32Z" fill="#DADDDF"/>
<path d="M1378.34 180.32H1355.12V186.99H1378.34V180.32Z" fill="#DADDDF"/>
<path d="M1355.12 198.172H1331.89V204.842H1355.12V198.172Z" fill="#B2B6BB"/>
<path d="M1509.36 198.172H1372.05V204.842H1509.36V198.172Z" fill="#DADDDF"/>
<path d="M1532.01 251.768H1394.71V258.437H1532.01V251.768Z" fill="#DADDDF"/>
<path d="M1890.63 269.62H1728.09V276.289H1890.63V269.62Z" fill="#1FD763"/>
<path d="M1755.76 251.768H1542.97V258.437H1755.76V251.768Z" fill="#1FD763"/>
<path d="M1717.04 269.62H1461.89V276.289H1717.04V269.62Z" fill="#DADDDF"/>
<path d="M1434.46 269.62H1394.71V276.289H1434.46V269.62Z" fill="#B2B6BB"/>
<path d="M1770.55 216.042H1551.74V222.711H1770.55V216.042Z" fill="#DADDDF"/>
<path d="M1932.77 216.042H1779.39V222.711H1932.77V216.042Z" fill="#1FD763"/>
<path d="M1747.2 198.172H1521.06V204.842H1747.2V198.172Z" fill="#1FD763"/>
<path d="M1355.12 216.042H1331.89V222.711H1355.12V216.042Z" fill="#DADDDF"/>
<path d="M1355.12 233.899H1331.89V240.568H1355.12V233.899Z" fill="#DADDDF"/>
<path d="M1378.34 251.768H1355.12V258.437H1378.34V251.768Z" fill="#B2B6BB"/>
<path d="M1378.34 269.62H1355.12V276.289H1378.34V269.62Z" fill="#DADDDF"/>
<path d="M1355.12 284.582H1331.89V291.251H1355.12V284.582Z" fill="#DADDDF"/>
<path d="M1644.47 284.582H1372.05V291.251H1644.47V284.582Z" fill="#DADDDF"/>
<path d="M1378.34 302.451H1355.12V309.12H1378.34V302.451Z" fill="#DADDDF"/>
<path d="M1569.62 302.451H1394.71V309.12H1569.62V302.451Z" fill="#B2B6BB"/>
<path d="M1539.11 356.03H1372.05V362.699H1539.11V356.03Z" fill="#B2B6BB"/>
<path d="M1511.9 320.303H1394.71V326.973H1511.9V320.303Z" fill="#1FD763"/>
<path d="M1784.42 320.303H1523.25V326.973H1784.42V320.303Z" fill="#B2B6BB"/>
<path d="M1710.58 373.902H1372.05V380.572H1710.58V373.902Z" fill="#1FD763"/>
<path d="M1952.74 302.451H1774.85V309.12H1952.74V302.451Z" fill="#1FD763"/>
<path d="M1766.04 302.451H1580.22V309.12H1766.04V302.451Z" fill="#DADDDF"/>
<path d="M1928.24 320.303H1859.12V326.973H1928.24V320.303Z" fill="#DADDDF"/>
<path d="M1378.34 320.303H1355.12V326.973H1378.34V320.303Z" fill="#DADDDF"/>
<path d="M1355.12 338.176H1331.89V344.845H1355.12V338.176Z" fill="#B2B6BB"/>
<path d="M1509.36 338.176H1372.05V344.845H1509.36V338.176Z" fill="#DADDDF"/>
<path d="M1770.55 356.03H1549.54V362.699H1770.55V356.03Z" fill="#DADDDF"/>
<path d="M1747.2 338.176H1521.06V344.845H1747.2V338.176Z" fill="#1FD763"/>
<path d="M1355.12 356.03H1331.89V362.699H1355.12V356.03Z" fill="#DADDDF"/>
<path d="M1354.37 127.809L1362.17 113.195C1362.26 113.026 1362.39 112.873 1362.56 112.745C1362.73 112.618 1362.92 112.518 1363.14 112.451C1363.35 112.382 1363.59 112.349 1363.82 112.352C1364.05 112.357 1364.28 112.397 1364.49 112.471C1364.9 112.611 1365.22 112.869 1365.38 113.19C1365.55 113.51 1365.55 113.871 1365.39 114.195L1357.57 128.843C1357.43 129.088 1357.2 129.298 1356.91 129.444C1356.63 129.591 1356.29 129.67 1355.95 129.67C1355.73 129.677 1355.51 129.641 1355.31 129.567C1355.1 129.499 1354.91 129.401 1354.75 129.277C1354.59 129.153 1354.46 129.005 1354.37 128.841C1354.29 128.677 1354.24 128.502 1354.24 128.326C1354.24 128.148 1354.29 127.973 1354.37 127.809Z" fill="#1FD763"/>
<path d="M1380.82 121.913C1380.75 121.978 1380.67 122.037 1380.58 122.085L1371.62 129.237C1371.23 129.525 1370.72 129.687 1370.19 129.685C1369.66 129.69 1369.15 129.528 1368.77 129.237C1368.58 129.091 1368.42 128.917 1368.32 128.722C1368.21 128.529 1368.16 128.32 1368.16 128.108C1368.16 127.898 1368.21 127.69 1368.32 127.495C1368.42 127.302 1368.58 127.126 1368.77 126.98L1376.31 120.982L1368.77 114.985C1368.58 114.839 1368.42 114.665 1368.32 114.47C1368.21 114.277 1368.16 114.068 1368.16 113.856C1368.16 113.646 1368.21 113.438 1368.32 113.245C1368.42 113.05 1368.58 112.874 1368.77 112.728C1369.15 112.44 1369.66 112.278 1370.19 112.278C1370.72 112.278 1371.23 112.44 1371.62 112.728L1380.58 119.879C1380.67 119.929 1380.75 119.986 1380.82 120.052C1380.88 120.124 1380.93 120.198 1380.97 120.276C1380.96 120.35 1380.96 120.426 1380.97 120.5C1380.97 120.5 1380.97 120.5 1380.97 120.586V120.758C1380.97 120.758 1380.97 120.758 1380.97 120.879V121.206C1380.96 121.282 1380.96 121.356 1380.97 121.431C1380.96 121.598 1380.9 121.76 1380.82 121.913Z" fill="#1FD763"/>
<path d="M1356.56 412.159L1364.36 397.545C1364.45 397.376 1364.58 397.223 1364.75 397.095C1364.92 396.968 1365.11 396.868 1365.33 396.801C1365.55 396.732 1365.78 396.699 1366.01 396.702C1366.24 396.708 1366.47 396.747 1366.69 396.821C1367.09 396.961 1367.41 397.219 1367.58 397.54C1367.74 397.86 1367.75 398.221 1367.58 398.545L1359.76 413.193C1359.62 413.438 1359.39 413.648 1359.11 413.794C1358.82 413.941 1358.48 414.02 1358.14 414.02C1357.92 414.027 1357.7 413.991 1357.5 413.917C1357.29 413.849 1357.1 413.751 1356.94 413.627C1356.78 413.503 1356.65 413.355 1356.57 413.191C1356.48 413.028 1356.43 412.852 1356.43 412.676C1356.43 412.498 1356.48 412.323 1356.56 412.159Z" fill="#1FD763"/>
<path d="M1383.01 406.263C1382.94 406.329 1382.86 406.387 1382.77 406.435L1373.81 413.587C1373.43 413.875 1372.92 414.037 1372.38 414.035C1371.85 414.041 1371.34 413.879 1370.96 413.587C1370.77 413.441 1370.61 413.267 1370.51 413.072C1370.4 412.879 1370.35 412.671 1370.35 412.459C1370.35 412.248 1370.4 412.04 1370.51 411.845C1370.61 411.652 1370.77 411.476 1370.96 411.33L1378.5 405.333L1370.96 399.335C1370.77 399.189 1370.61 399.015 1370.51 398.82C1370.4 398.627 1370.35 398.419 1370.35 398.207C1370.35 397.996 1370.4 397.788 1370.51 397.593C1370.61 397.4 1370.77 397.224 1370.96 397.078C1371.34 396.79 1371.85 396.628 1372.38 396.628C1372.92 396.628 1373.43 396.79 1373.81 397.078L1382.77 404.23C1382.86 404.28 1382.94 404.336 1383.01 404.402C1383.07 404.474 1383.12 404.548 1383.17 404.626C1383.15 404.7 1383.15 404.776 1383.17 404.85C1383.17 404.85 1383.17 404.85 1383.17 404.936V405.108C1383.17 405.108 1383.17 405.109 1383.17 405.229V405.557C1383.15 405.632 1383.15 405.707 1383.17 405.781C1383.15 405.948 1383.1 406.11 1383.01 406.263Z" fill="#1FD763"/>
<path d="M796.461 863.412C788.923 879.439 779.435 896.827 775.907 908.873C774.68 913.009 774.308 917.266 777.375 920.764L821.069 972.604C835.137 1000.94 746.566 939.428 736.377 936.067L733.353 935.051C721.805 931.225 686.438 920.695 703.245 904.599L714.925 889.899C720.512 881.731 728.927 860.603 734.12 849.211L796.461 863.412Z" fill="#FC9D9D"/>
<path opacity="0.15" d="M766.502 834.909L760.322 817.004L733.37 849.609C728.177 861.001 720.507 881.732 714.92 889.901L703.24 904.601C697.477 910.133 697.455 914.82 700.414 918.732L713.758 923.713C739.79 882.749 766.502 834.909 766.502 834.909Z" fill="black"/>
<path d="M724.099 925.455C724.936 925.455 725.74 925.193 726.332 924.728C726.923 924.263 727.254 923.632 727.254 922.974C727.254 922.315 726.923 921.685 726.332 921.219C725.74 920.752 724.936 920.492 724.099 920.492C723.262 920.492 722.46 920.752 721.868 921.219C721.276 921.685 720.943 922.315 720.943 922.974C720.943 923.632 721.276 924.263 721.868 924.728C722.46 925.193 723.262 925.455 724.099 925.455Z" fill="#FC9D9D"/>
<path d="M562.781 603.244H889.76C897.725 603.247 905.554 604.864 912.496 607.935C919.438 611.006 925.258 615.429 929.397 620.782C933.536 626.133 935.857 632.232 936.133 638.493C936.409 644.754 934.634 650.964 930.977 656.529L782.454 903.517L716.235 879.977L794.09 691.306H608.776L562.781 603.244Z" fill="#3F4249"/>
<path opacity="0.3" d="M562.781 603.244H867.212C870.503 603.252 873.742 603.899 876.638 605.127C879.535 606.356 882.003 608.128 883.821 610.285C885.64 612.443 886.753 614.921 887.062 617.499C887.373 620.075 886.869 622.674 885.596 625.061L881.499 632.644L883.076 634.367C890.68 642.984 894.032 656.564 896.531 667.696L903.104 696.993C903.137 697.141 903.135 697.293 903.093 697.441C903.054 697.587 902.975 697.727 902.865 697.851C902.756 697.975 902.616 698.08 902.453 698.16C902.291 698.241 902.109 698.294 901.921 698.32H901.68C901.334 698.323 900.999 698.23 900.733 698.056C900.468 697.882 900.291 697.639 900.234 697.372L893.66 668.179C891.162 657.132 887.809 643.69 880.162 635.177L745.159 889.782L716.235 879.977L794.09 691.306H608.776L562.781 603.244Z" fill="black"/>
<path d="M939.474 889.264C944.12 905.963 948.064 924.627 953.345 936.259C955.164 940.274 957.728 943.997 962.745 945.634L1035.06 970.76C1066.35 988.648 949.598 974.465 938.642 975.93L935.399 976.361C923.04 978.084 886.052 984.168 889.163 963.488L888.9 946.151C888.002 936.914 880.596 915.562 877.155 903.757L939.474 889.264Z" fill="#FC9D9D"/>
<path opacity="0.15" d="M894.69 877.976L877.16 865.516L876.831 904.463C880.271 916.251 888.028 936.965 888.927 946.202L889.19 963.539C888.116 970.657 891.381 974.603 896.487 976.637L911.146 975.172C905.032 929.59 894.69 877.976 894.69 877.976Z" fill="black"/>
<path d="M919.402 972.587C920.24 972.587 921.042 972.328 921.635 971.863C922.227 971.398 922.558 970.76 922.558 970.105C922.558 969.45 922.227 968.813 921.635 968.347C921.042 967.882 920.24 967.624 919.402 967.624C918.565 967.624 917.763 967.882 917.172 968.347C916.58 968.813 916.247 969.45 916.247 970.105C916.247 970.76 916.58 971.398 917.172 971.863C917.763 972.328 918.565 972.587 919.402 972.587Z" fill="#FC9D9D"/>
<path d="M459.816 657.132L466.149 662.406C477.215 671.562 490.496 678.886 505.215 683.944C519.933 689.002 535.789 691.692 551.849 691.857L788.504 694.287L881.785 932.71L953.527 921.698L889.521 652.858C887.294 643.339 881.24 634.632 872.249 628.022C863.261 621.409 851.809 617.242 839.582 616.134L623.415 596.522L459.816 657.132Z" fill="#3F4249"/>
<path opacity="0.3" d="M514.51 636.866C534.407 659.166 577.136 667.42 609.742 667.696L797.948 672.125C804.241 672.268 810.307 674.002 815.248 677.068C820.189 680.135 823.744 684.371 825.383 689.152L905.319 928.592L881.72 932.71L788.438 694.218L561.074 691.943C542.096 691.747 523.358 688.566 505.966 682.584C488.577 676.602 472.885 667.943 459.816 657.115L514.51 636.866Z" fill="black"/>
<path d="M474.316 400.406L389.427 509.286C386.655 512.848 385.141 516.927 385.038 521.103C384.935 525.278 386.25 529.401 388.846 533.044C391.441 536.689 395.225 539.722 399.805 541.835C404.387 543.947 409.602 545.061 414.911 545.062H503.021L474.316 400.406Z" fill="#1FD763"/>
<path d="M632.154 296.507L639.561 331.319C639.933 333.042 651.898 341.331 651.7 344.192C651.744 345.634 651.142 347.044 650.002 348.175C648.861 349.305 647.252 350.084 645.455 350.379C642.519 350.896 641.708 350.551 641.708 350.551L636.274 369.025C633.688 378.797 625.471 386.776 609.738 384.535L595.276 382.812L579.608 412.109L521.233 378.159L537.317 340.538L557.805 287.305L632.154 296.507Z" fill="#FC9D9D"/>
<path d="M526.911 285.304C534.208 274.068 543.543 270.173 558.071 270.897C559.236 270.854 560.365 270.568 561.342 270.068C562.322 269.57 563.113 268.874 563.636 268.053C566.507 264.193 573.76 257.576 589.406 258.161C593.871 258.208 598.249 259.149 602.126 260.895C606.002 262.64 609.247 265.134 611.559 268.14C612.536 269.317 614.02 270.178 615.738 270.564C617.458 270.95 619.296 270.837 620.916 270.242C624.279 269.036 627.985 268.531 631.67 268.779C635.354 269.025 638.895 270.016 641.952 271.655C658.255 279.772 651.505 301.9 634.107 303.882L620.193 304.984C618.922 305.091 617.741 305.545 616.851 306.265C615.961 306.987 615.422 307.93 615.328 308.931C615.107 310.873 614.416 312.762 613.29 314.497C611.463 317.367 608.566 319.728 604.987 321.267C601.409 322.807 597.318 323.452 593.262 323.114C592.809 323.088 592.353 323.136 591.925 323.257C591.498 323.378 591.108 323.567 590.779 323.814C590.451 324.062 590.192 324.36 590.019 324.691C589.846 325.022 589.765 325.377 589.778 325.733L590.041 338.038C590.065 338.676 589.855 339.303 589.441 339.849C589.024 340.395 588.419 340.838 587.696 341.123C587.181 341.311 586.62 341.411 586.053 341.417C585.485 341.423 584.922 341.335 584.401 341.157C583.879 340.98 583.41 340.718 583.027 340.389C582.643 340.058 582.354 339.668 582.174 339.244L578.822 331.076C578.239 329.709 577.165 328.503 575.73 327.603C574.297 326.705 572.561 326.15 570.736 326.009L566.638 325.699C562.672 330.369 559.035 335.608 555.682 339.658C553.482 342.443 550.73 344.933 547.531 347.034C541.702 350.584 536.925 349.412 533.967 344.673C533.967 344.673 515.495 314.032 524.084 291.249C524.832 289.223 525.822 287.255 527.043 285.373" fill="black"/>
<path opacity="0.15" d="M547.425 347.034L558.973 347.982L560.2 348.499C564.21 350.067 570.893 352.118 576.349 350.946C576.733 350.853 577.057 350.648 577.25 350.37C577.441 350.093 577.489 349.767 577.379 349.464C577.267 349.162 577.009 348.909 576.66 348.757C576.31 348.606 575.9 348.568 575.517 348.654C574.609 348.842 573.672 348.935 572.734 348.93L555.554 339.658C553.354 342.436 550.611 344.926 547.425 347.034Z" fill="black"/>
<path d="M572.947 324.408C572.287 323.299 571.328 322.318 570.136 321.53C568.943 320.745 567.546 320.172 566.042 319.857C564.539 319.54 562.966 319.485 561.434 319.697C559.9 319.909 558.445 320.381 557.17 321.082C544.921 326.649 550.596 349.5 572.728 348.931C584.298 348.621 581.23 343.658 578.315 336.868L572.947 324.408Z" fill="#FC9D9D"/>
<path opacity="0.15" d="M557.372 327.147C558.178 326.528 559.135 326.047 560.187 325.732C561.239 325.418 562.361 325.277 563.485 325.32C564.583 325.458 565.63 325.773 566.566 326.245C567.499 326.716 568.302 327.335 568.919 328.06C570.583 329.854 571.632 331.955 571.965 334.161L572.447 336.16C572.491 336.437 572.395 336.718 572.178 336.94C571.959 337.163 571.639 337.309 571.286 337.349C571.111 337.368 570.931 337.359 570.76 337.323C570.589 337.289 570.427 337.227 570.287 337.14C570.146 337.056 570.028 336.949 569.941 336.828C569.853 336.708 569.796 336.573 569.774 336.436L569.27 334.436C568.952 332.586 568.098 330.816 566.772 329.266C565.95 328.279 564.666 327.586 563.2 327.336C562.44 327.328 561.684 327.441 560.978 327.669C560.275 327.896 559.637 328.236 559.103 328.663C558.833 328.844 558.482 328.932 558.13 328.91C557.775 328.887 557.448 328.755 557.218 328.543C556.988 328.329 556.876 328.053 556.905 327.776C556.933 327.498 557.102 327.242 557.372 327.061" fill="black"/>
<path d="M459.814 657.149C502.785 660.124 545.505 649.591 578.624 627.853L622.778 598.866L578.492 514.733L647.407 454.675L644.12 446.954C638.767 434.293 627.789 423.574 613.202 416.761L596.329 408.886L591.443 394.169L526.1 361.425L515.406 376.763C499.91 380.403 486.184 387.66 476.047 397.572C465.913 407.485 459.847 419.586 458.653 432.271L442.635 568.26C440.575 590.094 440.005 610.516 447.215 634.591C448.755 639.769 451.181 644.76 454.424 649.429L459.814 657.149Z" fill="#1FD763"/>
<path opacity="0.2" d="M622.773 598.883L575.42 508.925C575.328 508.705 575.183 508.503 574.991 508.327C574.8 508.151 574.565 508.008 574.303 507.905C574.04 507.8 573.755 507.738 573.461 507.721C573.168 507.703 572.874 507.733 572.593 507.805C572.315 507.877 572.057 507.991 571.835 508.143C571.612 508.294 571.43 508.477 571.296 508.684C571.165 508.891 571.086 509.115 571.064 509.346C571.042 509.577 571.077 509.808 571.169 510.028L605.988 608.948L622.773 598.883Z" fill="black"/>
<path opacity="0.2" d="M596.346 410.263C596.655 410.267 596.96 410.204 597.225 410.084C597.492 409.962 597.712 409.786 597.858 409.574C598.08 409.26 598.134 408.89 598.012 408.545C597.889 408.2 597.598 407.906 597.201 407.73L527.738 377.123C527.539 377.034 527.32 376.979 527.092 376.958C526.864 376.937 526.634 376.951 526.415 377.001C526.194 377.051 525.988 377.134 525.81 377.248C525.63 377.36 525.481 377.499 525.372 377.658C525.26 377.813 525.19 377.985 525.164 378.163C525.137 378.34 525.157 378.519 525.221 378.692C525.284 378.862 525.389 379.023 525.532 379.162C525.674 379.302 525.852 379.415 526.051 379.502L595.514 410.194C595.772 410.296 596.057 410.349 596.346 410.349" fill="black"/>
<path opacity="0.2" d="M459.86 428.358L428.284 545.062H445.354L461.854 428.599C461.894 428.392 461.828 428.179 461.67 428.01C461.512 427.841 461.274 427.727 461.011 427.694C460.745 427.663 460.476 427.715 460.261 427.839C460.044 427.963 459.9 428.151 459.86 428.358Z" fill="black"/>
<path opacity="0.15" d="M595.258 382.774L586.055 381.43C585.54 381.352 585.005 381.402 584.525 381.576C584.047 381.749 583.651 382.035 583.39 382.393C583.129 382.752 583.017 383.167 583.072 383.577C583.125 383.989 583.34 384.377 583.688 384.687L591.138 389.667L595.258 382.774Z" fill="black"/>
<path d="M804.875 527.055L680.237 547.632L671.472 523.091L596.027 547.115L615.749 593.317C622.804 604.433 632.972 612.136 650.436 611.481C676.534 610.516 852.71 545.995 852.71 545.995L839.103 522.971L815.591 525.349" fill="#FC9D9D"/>
<path d="M631.414 329.527C632.203 327.338 631.414 325.201 629.003 324.615C626.593 324.029 624.38 325.13 623.394 327.112C622.408 329.094 623.394 331.44 625.782 332.025C626.361 332.155 626.966 332.194 627.564 332.139C628.162 332.084 628.741 331.936 629.264 331.703C629.788 331.471 630.248 331.159 630.616 330.785C630.987 330.411 631.256 329.983 631.414 329.527Z" fill="black"/>
<path d="M637.086 319.393C636.56 320.048 632.923 319.204 628.475 318.945C624.026 318.687 620.301 318.945 619.863 318.325C619.688 317.98 620.433 317.411 622.054 316.929C624.202 316.351 626.476 316.127 628.738 316.269C630.999 316.412 633.199 316.917 635.202 317.756C636.648 318.428 637.327 319.083 637.086 319.393Z" fill="black"/>
<path d="M909.7 540.841C909.7 540.841 873.939 545.839 853.516 544.495L850.536 535.671L884.961 534.189L909.7 540.841Z" fill="#FC9D9D"/>
<path opacity="0.15" d="M909.7 540.841C909.7 540.841 873.939 545.839 853.516 544.495L850.536 535.671L884.961 534.189L909.7 540.841Z" fill="black"/>
<path d="M885.271 526.743L909.573 530.983L924.517 553.593C924.85 554.127 924.951 554.734 924.802 555.316C924.707 555.656 924.53 555.978 924.276 556.262C924.024 556.548 923.702 556.791 923.329 556.977C922.954 557.163 922.538 557.289 922.102 557.346C921.668 557.405 921.221 557.394 920.792 557.315C919.345 557.07 918.079 556.39 917.264 555.419L904.533 539.479L893.445 537.187L885.271 526.743Z" fill="#FC9D9D"/>
<path d="M935.471 546.406C935.488 546.823 935.401 547.239 935.212 547.63C935.026 548.019 934.741 548.376 934.375 548.679C934.012 548.983 933.573 549.226 933.087 549.395C932.603 549.563 932.079 549.655 931.549 549.663C930.243 549.696 928.956 549.408 927.867 548.836L917.985 543.666L909.57 530.914L933.674 543.856C934.215 544.133 934.662 544.512 934.976 544.957C935.289 545.4 935.46 545.898 935.471 546.406Z" fill="#FC9D9D"/>
<path opacity="0.15" d="M910.931 547.544L905.628 536.635L885.271 526.743L893.445 537.255L904.533 539.548L910.931 547.544Z" fill="black"/>
<path d="M909.57 530.981L938.583 536.048C939.091 536.137 939.558 536.33 939.943 536.604C940.327 536.88 940.614 537.228 940.774 537.616C940.997 538.155 940.962 538.741 940.677 539.262C940.39 539.782 939.871 540.201 939.218 540.442H939.043C938.414 540.688 937.697 540.766 937.005 540.666L924.515 538.943L909.57 530.981Z" fill="#FC9D9D"/>
<path opacity="0.15" d="M922.104 545.871L909.57 530.981L917.985 543.734L922.104 545.871Z" fill="black"/>
<path opacity="0.15" d="M929.204 539.806L924.515 538.996L910.71 531.189L913.098 531.603L929.204 539.806Z" fill="black"/>
<path d="M815.477 525.33L819.859 532.482L837.104 549.095C838.57 551.208 840.693 552.993 843.277 554.284C845.86 555.573 848.819 556.326 851.873 556.471C860.296 556.812 868.636 557.97 876.7 559.917C877.276 560.062 877.892 560.079 878.479 559.967C879.067 559.854 879.604 559.616 880.031 559.28C880.763 558.692 881.172 557.905 881.172 557.082C881.172 556.26 880.763 555.471 880.031 554.885L879.855 554.73C877.165 552.505 873.768 550.887 870.017 550.043L859.762 547.44C858.425 547.148 857.768 545.459 857.855 544.373C857.908 543.865 858.173 543.384 858.609 543.006C859.045 542.631 859.628 542.377 860.266 542.288L876.393 538.738C877.373 538.603 878.376 538.626 879.343 538.803C880.311 538.981 881.223 539.31 882.025 539.772L890.395 544.562L897.802 559.969C897.99 560.364 898.301 560.717 898.707 560.993C899.112 561.27 899.601 561.463 900.125 561.555H900.387C901.225 561.694 902.097 561.57 902.818 561.208C903.539 560.848 904.051 560.279 904.244 559.624C904.332 559.266 904.332 558.897 904.244 558.539L899.138 539.703L890.373 527.639L857.132 521.677C854.978 521.285 852.756 521.182 850.558 521.366L815.477 525.33Z" fill="#FC9D9D"/>
<path d="M673.218 526.519L647.406 454.673L578.513 514.68L599.089 553.748L673.218 526.519Z" fill="#1FD763"/>
<path opacity="0.15" d="M681.194 547.733L666.272 551.404C665.945 551.494 665.593 551.495 665.266 551.413C664.938 551.328 664.655 551.161 664.458 550.939C664.263 550.716 664.164 550.449 664.179 550.179C664.195 549.908 664.322 549.648 664.541 549.439L678.631 540.53L681.194 547.733Z" fill="black"/>
<path d="M884.527 943.583V978.567C884.523 979.928 884.863 981.255 885.524 982.513C886.186 983.754 887.155 984.891 888.38 985.839C889.602 986.804 891.053 987.545 892.65 988.062C894.246 988.562 895.953 988.821 897.675 988.803H1048.87C1050.32 988.803 1051.7 988.338 1052.72 987.545C1053.74 986.735 1054.32 985.65 1054.33 984.512C1054.3 980.445 1052.66 976.482 1049.63 973.173C1046.6 969.881 1042.34 967.4 1037.43 966.107L1003.31 957.249L960.104 930.83C957.925 929.498 955.228 928.799 952.469 928.849C949.71 928.899 947.059 929.697 944.962 931.106L925.767 943.98C924.39 944.92 922.736 945.572 920.955 945.873C919.171 946.175 917.322 946.116 915.577 945.703L891.298 939.775C890.527 939.585 889.712 939.539 888.916 939.638C888.119 939.738 887.363 939.983 886.705 940.352C886.05 940.721 885.511 941.205 885.134 941.765C884.755 942.327 884.547 942.947 884.527 943.583Z" fill="#1FD763"/>
<path d="M897.556 988.907H1048.75C1050.2 988.907 1051.58 988.441 1052.6 987.649C1053.63 986.839 1054.2 985.753 1054.21 984.616C1054.25 983.168 1054.01 981.72 1053.49 980.342H884.672C885.202 982.737 886.782 984.891 889.138 986.46C891.493 988.028 894.473 988.889 897.556 988.907Z" fill="#1FD763"/>
<path opacity="0.5" d="M897.556 988.907H1048.75C1050.2 988.907 1051.58 988.441 1052.6 987.649C1053.63 986.839 1054.2 985.753 1054.21 984.616C1054.25 983.168 1054.01 981.72 1053.49 980.342H884.672C885.202 982.737 886.782 984.891 889.138 986.46C891.493 988.028 894.473 988.889 897.556 988.907Z" fill="black"/>
<path d="M709.731 890.677L688.037 921.249C687.196 922.421 686.659 923.711 686.455 925.049C686.251 926.384 686.387 927.739 686.854 929.035C687.321 930.329 688.11 931.539 689.172 932.592C690.237 933.646 691.557 934.524 693.055 935.173L812.435 987.563L825.21 987.993C830.819 987.27 833.755 987.597 835.202 985.546C840.351 978.291 836.385 975.103 829.263 968.951L804.962 948.046L783.532 908.41C782.456 906.412 780.537 904.767 778.098 903.753C775.659 902.74 772.85 902.418 770.143 902.843L745.36 906.704C743.577 906.99 741.732 906.914 739.996 906.487C738.261 906.059 736.69 905.292 735.434 904.257L717.904 889.763C717.334 889.322 716.644 888.991 715.886 888.795C715.128 888.598 714.321 888.542 713.53 888.631C712.739 888.719 711.985 888.95 711.326 889.305C710.666 889.66 710.121 890.129 709.731 890.677Z" fill="#1FD763"/>
<path opacity="0.5" d="M836.843 982.237L818.152 980.169L687.137 922.679C686.118 924.966 686.153 927.459 687.236 929.727C688.316 931.993 690.376 933.891 693.053 935.087L812.498 987.511L825.032 987.907C827.647 987.907 830.245 987.579 832.724 986.925C834.086 986.459 835.18 985.615 835.791 984.546C836.245 983.805 836.598 983.03 836.843 982.237Z" fill="black"/>
<path d="M338.049 988.2L397.541 729.338C398.703 723.186 395.021 719.274 402.91 719.274H533.552C537.56 719.391 541.399 720.579 544.438 722.64C547.475 724.699 549.533 727.512 550.271 730.614L595.937 989.613H612.722L569.62 729.287C567.648 718.826 550.228 710.33 536.751 710.33H399.667C392.942 710.471 386.486 712.436 381.392 715.89C376.297 719.345 372.874 724.077 371.706 729.287L310.505 988.2H338.049Z" fill="#B2B6BB"/>
<path opacity="0.3" d="M381.304 715.931H411.499V719.257H402.909C395.284 719.257 398.527 722.91 397.65 728.701H371.859C373.08 723.725 376.411 719.224 381.304 715.931Z" fill="black"/>
<path d="M338.045 988.2H327.812L388.684 726.617C389.94 722.312 392.975 718.455 397.311 715.65C401.648 712.844 407.045 711.247 412.657 711.107H553.006C558.62 711.222 564.006 712.866 568.251 715.758C572.495 718.65 575.331 722.608 576.277 726.962L622.863 989.699H612.718L566.921 728.047C566.311 725.464 564.6 723.12 562.071 721.404C559.543 719.687 556.346 718.7 553.006 718.603H412.657C409.227 718.717 405.938 719.706 403.289 721.423C400.64 723.141 398.773 725.49 397.975 728.116L338.045 988.2Z" fill="#B2B6BB"/>
<path opacity="0.25" d="M338.045 988.2H327.812L388.684 726.617C389.94 722.312 392.975 718.455 397.311 715.65C401.648 712.844 407.045 711.247 412.657 711.107H553.006C558.62 711.222 564.006 712.866 568.251 715.758C572.495 718.65 575.331 722.608 576.277 726.962L622.863 989.699H612.718L566.921 728.047C566.311 725.464 564.6 723.12 562.071 721.404C559.543 719.687 556.346 718.7 553.006 718.603H412.657C409.227 718.717 405.938 719.706 403.289 721.423C400.64 723.141 398.773 725.49 397.975 728.116L338.045 988.2Z" fill="black"/>
<path d="M355.427 718.19C329.592 716.846 349.664 671.229 345.786 652.962L345.019 649.291L354.354 648.067L355.12 651.738C360.862 678.829 343.704 710.745 355.427 710.745C360.905 710.745 368.881 710.538 379.925 710.28C408.894 709.556 457.386 708.315 544.642 708.315H549.375V715.76H544.642C457.518 715.76 409.135 716.966 380.298 717.707C369.166 717.983 361.124 718.19 355.493 718.19" fill="#B2B6BB"/>
<path d="M554.915 715.741H364.495C349.376 715.741 349.617 705.78 353.539 688.168C357.921 669.211 355.73 656.234 354.766 651.65L364.101 650.427C369.71 676.949 352.509 708.296 364.408 708.296H554.827V715.724L554.915 715.741Z" fill="#80848B"/>
<path d="M786.467 723.808C771.185 730.87 753.793 734.617 736.068 734.665H484.6C428.613 734.665 368.573 731.477 359.699 713.606C350.824 695.735 744.153 702.215 744.153 702.215C744.153 702.215 775.182 706.575 778.425 708.505C781.668 710.435 786.554 723.808 786.554 723.808" fill="#868A91"/>
<path d="M368.33 662.99L338.178 489.864C337.608 486.848 318.654 485.607 319.421 482.97C322.138 473.371 333.774 458.137 364.298 458.137H518.146C527.029 458.332 535.557 460.931 542.287 465.496C549.018 470.059 553.539 476.311 555.09 483.194C555.09 483.194 587.959 653.511 586.644 657.251C585.329 660.991 581.013 668.78 572.971 668.78C564.929 668.78 369.666 669.918 369.666 669.918L368.33 662.99Z" fill="#B2B6BB"/>
<path d="M572.25 717.43H371.531C369.292 717.43 367.077 717.083 365.008 716.41C362.939 715.736 361.059 714.748 359.477 713.502C357.893 712.258 356.637 710.78 355.781 709.153C354.924 707.528 354.483 705.784 354.483 704.022C354.483 702.263 354.924 700.519 355.781 698.892C356.637 697.265 357.893 695.787 359.477 694.542C361.059 693.296 362.939 692.309 365.008 691.635C367.077 690.961 369.292 690.615 371.531 690.615H572.25C576.77 690.615 581.107 692.028 584.304 694.542C587.501 697.057 589.298 700.467 589.298 704.022C589.298 707.579 587.501 710.988 584.304 713.502C581.107 716.018 576.77 717.43 572.25 717.43Z" fill="#B2B6BB"/>
<path d="M799.46 737.662C796.018 737.657 792.694 736.668 790.106 734.881C787.518 733.094 785.844 730.627 785.392 727.942C785.108 726.891 781.141 715.19 748.317 715.19H587.588C583.94 715.233 580.403 714.192 577.686 712.276C574.969 710.359 573.271 707.707 572.929 704.85C572.8 703.323 573.071 701.791 573.724 700.35C574.379 698.908 575.403 697.588 576.731 696.471C578.061 695.352 579.667 694.462 581.451 693.852C583.237 693.241 585.16 692.926 587.106 692.924H748.338C800.687 692.924 813.375 717.62 813.682 726.254C813.791 729.161 812.452 731.987 809.952 734.131C807.452 736.275 803.985 737.566 800.293 737.731H799.46V737.662ZM785.261 726.529C785.254 727.02 785.298 727.51 785.392 727.994C785.392 727.787 785.392 727.598 785.392 727.391C785.373 727.103 785.373 726.817 785.392 726.529H785.261Z" fill="#B2B6BB"/>
<path opacity="0.15" d="M799.46 737.662C796.018 737.657 792.694 736.668 790.106 734.881C787.518 733.094 785.844 730.627 785.392 727.942C785.108 726.891 781.141 715.19 748.317 715.19H587.588C583.94 715.233 580.403 714.192 577.686 712.276C574.969 710.359 573.271 707.707 572.929 704.85C572.8 703.323 573.071 701.791 573.724 700.35C574.379 698.908 575.403 697.588 576.731 696.471C578.061 695.352 579.667 694.462 581.451 693.852C583.237 693.241 585.16 692.926 587.106 692.924H748.338C800.687 692.924 813.375 717.62 813.682 726.254C813.791 729.161 812.452 731.987 809.952 734.131C807.452 736.275 803.985 737.566 800.293 737.731H799.46V737.662ZM785.261 726.529C785.254 727.02 785.298 727.51 785.392 727.994C785.392 727.787 785.392 727.598 785.392 727.391C785.373 727.103 785.373 726.817 785.392 726.529H785.261Z" fill="black"/>
<path d="M757.873 715.743H568.922C567.445 715.726 565.99 715.474 564.642 715.005C563.292 714.535 562.078 713.856 561.073 713.008C560.065 712.158 559.287 711.16 558.783 710.07C558.279 708.979 558.06 707.819 558.141 706.661C558.404 690.617 565.722 682.207 559.061 650.859L556.388 649.274L567.344 648.05L568.111 651.721C574.685 682.896 558.382 708.315 568.768 708.315H757.763L757.873 715.743Z" fill="#B2B6BB"/>
<path d="M763.432 716.965H575.663C552.348 716.965 573.932 684.721 565.824 651.823L575.356 650.444C581.119 677.586 567.095 709.52 578.819 709.52H763.432V716.965Z" fill="#80848B"/>
<path d="M830.228 988.2L783.992 718.343C783.054 713.99 780.214 710.032 775.961 707.15C771.708 704.269 766.311 702.644 760.699 702.558H749.042C747.368 702.335 745.676 702.22 743.98 702.213L607.355 701.816C600.633 701.961 594.177 703.927 589.085 707.381C583.99 710.835 580.567 715.565 579.395 720.773L533.379 989.613H560.813L606.523 719.481C607.11 716.902 608.802 714.559 611.317 712.841C613.833 711.122 617.019 710.133 620.35 710.037H698.402L741.241 710.778C745.249 710.897 749.088 712.082 752.127 714.143C755.164 716.205 757.222 719.017 757.96 722.117L803.407 988.234H820.104L830.228 988.2Z" fill="#B2B6BB"/>
<path opacity="0.25" d="M820.188 988.2L774.631 719.36C774.042 716.78 772.35 714.438 769.835 712.72C767.319 711.002 764.133 710.013 760.805 709.916H620.455C617.124 710.013 613.938 711.002 611.423 712.72C608.907 714.438 607.216 716.78 606.628 719.36L560.919 989.527H550.729L597.228 718.343C598.164 713.999 600.992 710.047 605.232 707.166C609.47 704.286 614.854 702.656 620.455 702.558H760.695C766.307 702.644 771.704 704.267 775.957 707.15C780.21 710.032 783.05 713.99 783.988 718.343L830.223 988.148L820.188 988.2Z" fill="black"/>
<path d="M358.447 662.991L328.295 489.865C327.704 486.849 314.622 485.609 315.389 482.972C318.106 473.373 341.925 464.825 355.774 464.825H509.621C518.516 465.013 527.05 467.612 533.789 472.18C540.524 476.749 545.045 483.008 546.588 489.9L576.257 668.368L567.492 669.988H359.696L358.447 662.991Z" fill="#80848B"/>
<path d="M355.8 464.788H509.648C515.59 464.903 521.417 466.101 526.671 468.286C531.926 470.473 536.464 473.587 539.931 477.385C539.159 477.182 538.482 476.804 537.981 476.299C533.598 472.474 529.676 480.539 529.676 483.606C529.676 486.036 391.276 496.376 330.272 500.409L328.278 489.862C327.708 486.846 314.626 485.605 315.371 482.969C318.089 473.37 341.929 464.822 355.778 464.822" fill="#80848B"/>
<path d="M341.842 669.918L311.669 496.792C310.946 493.666 311.123 490.453 312.186 487.387C313.249 484.323 315.17 481.485 317.809 479.081C320.449 476.677 323.738 474.767 327.437 473.492C331.138 472.219 335.152 471.612 339.191 471.717H500.357C509.247 471.91 517.78 474.512 524.514 479.079C531.247 483.648 535.772 489.904 537.324 496.792L567.475 669.918C567.475 669.918 519.618 679.517 443.429 679.517C367.239 679.517 341.842 669.918 341.842 669.918Z" fill="#B2B6BB"/>
<path opacity="0.3" d="M580.684 716.963H362.041L365.415 719.72H579.72L580.684 716.963Z" fill="black"/>
<path d="M1353.5 358.167H1117V556.763H1353.5V358.167Z" fill="#3F4249"/>
<path d="M1226.32 366.303H1125.85V543.151H1226.32V366.303Z" stroke="#868A91" stroke-width="0.55" stroke-miterlimit="10"/>
<path opacity="0.3" d="M1353.49 358.77H1236.28V556.298H1353.49V358.77Z" fill="black"/>
<path d="M1219.13 377.589H1133.01V385.12H1219.13V377.589Z" fill="#868A91"/>
<path d="M1219.13 436.854H1133.01V455.673H1219.13V436.854Z" stroke="#868A91" stroke-width="0.55" stroke-miterlimit="10"/>
<path d="M1219.13 455.656H1133.01V474.475H1219.13V455.656Z" stroke="#868A91" stroke-width="0.55" stroke-miterlimit="10"/>
<path d="M1143.01 390.755H1133.43V392.633H1143.01V390.755Z" fill="#868A91"/>
<path d="M1216.74 400.163H1135.4V401.576H1216.74V400.163Z" fill="#868A91"/>
<path d="M1214.33 408.161H1137.79V409.574H1214.33V408.161Z" fill="#868A91"/>
<path d="M1176.06 518.694C1179.37 518.694 1182.05 516.588 1182.05 513.989C1182.05 511.392 1179.37 509.284 1176.06 509.284C1172.76 509.284 1170.08 511.392 1170.08 513.989C1170.08 516.588 1172.76 518.694 1176.06 518.694Z" fill="#1FD763"/>
<path opacity="0.3" d="M1176.07 509.284H1175.67C1177.19 509.356 1178.61 509.88 1179.65 510.751C1180.69 511.621 1181.27 512.769 1181.27 513.963C1181.27 515.157 1180.69 516.307 1179.65 517.175C1178.61 518.045 1177.19 518.569 1175.67 518.642H1176.07C1176.88 518.681 1177.7 518.588 1178.46 518.369C1179.23 518.151 1179.93 517.811 1180.53 517.372C1181.12 516.932 1181.59 516.401 1181.92 515.812C1182.24 515.223 1182.41 514.588 1182.41 513.946C1182.41 513.305 1182.24 512.669 1181.92 512.079C1181.59 511.49 1181.12 510.959 1180.53 510.52C1179.93 510.08 1179.23 509.741 1178.46 509.522C1177.7 509.303 1176.88 509.212 1176.07 509.25V509.284Z" fill="black"/>
<path opacity="0.4" d="M1177.27 494.222H1174.84C1174.22 494.222 1173.72 494.617 1173.72 495.101V502.753C1173.72 503.239 1174.22 503.632 1174.84 503.632H1177.27C1177.89 503.632 1178.39 503.239 1178.39 502.753V495.101C1178.39 494.617 1177.89 494.222 1177.27 494.222Z" fill="black"/>
<path opacity="0.3" d="M1177.3 494.31H1176.55C1176.85 494.31 1177.13 494.403 1177.34 494.567C1177.55 494.732 1177.67 494.956 1177.67 495.189V502.841C1177.67 503.073 1177.55 503.297 1177.34 503.463C1177.13 503.626 1176.85 503.719 1176.55 503.719H1177.3C1177.59 503.719 1177.88 503.626 1178.09 503.463C1178.3 503.297 1178.42 503.073 1178.42 502.841V495.189C1178.42 494.956 1178.3 494.732 1178.09 494.567C1177.88 494.403 1177.59 494.31 1177.3 494.31Z" fill="black"/>
<path d="M213.126 170.323H1.60447C0.528571 170.323 -0.345703 171.009 -0.345703 171.857V298.039C-0.345703 298.887 0.528571 299.573 1.60447 299.573H213.126C214.204 299.573 215.076 298.887 215.076 298.039V171.857C215.076 171.009 214.204 170.323 213.126 170.323Z" fill="#1FD763"/>
<path opacity="0.2" d="M213.126 170.323H1.60447C0.528571 170.323 -0.345703 171.009 -0.345703 171.857V298.039C-0.345703 298.887 0.528571 299.573 1.60447 299.573H213.126C214.204 299.573 215.076 298.887 215.076 298.039V171.857C215.076 171.009 214.204 170.323 213.126 170.323Z" fill="black"/>
<path d="M209.421 170.323H-2.10054C-3.17863 170.323 -4.05078 171.009 -4.05078 171.857V298.039C-4.05078 298.887 -3.17863 299.573 -2.10054 299.573H209.421C210.499 299.573 211.371 298.887 211.371 298.039V171.857C211.371 171.009 210.499 170.323 209.421 170.323Z" fill="#1FD763"/>
<path d="M2040.32 535.67H1794.97C1793.72 535.67 1792.71 536.464 1792.71 537.445V683.825C1792.71 684.805 1793.72 685.6 1794.97 685.6H2040.32C2041.57 685.6 2042.58 684.805 2042.58 683.825V537.445C2042.58 536.464 2041.57 535.67 2040.32 535.67Z" fill="#1FD763"/>
<path opacity="0.2" d="M2040.32 535.67H1794.97C1793.72 535.67 1792.71 536.464 1792.71 537.445V683.825C1792.71 684.805 1793.72 685.6 1794.97 685.6H2040.32C2041.57 685.6 2042.58 684.805 2042.58 683.825V537.445C2042.58 536.464 2041.57 535.67 2040.32 535.67Z" fill="black"/>
<path d="M2036 535.67H1790.65C1789.4 535.67 1788.39 536.464 1788.39 537.445V683.825C1788.39 684.805 1791.66 683.825 1792.91 683.825H2038.26C2038.26 684.805 2039.51 683.825 2038.26 683.825V537.445C2038.26 536.464 2037.25 535.67 2036 535.67Z" fill="#1FD763"/>
<path opacity="0.1" d="M2412.55 759.853H1784.38V960.518H2412.55V759.853Z" fill="black"/>
<path d="M1789.12 761.585C1789.12 762.293 1788.85 762.986 1788.35 763.575C1787.85 764.166 1787.13 764.624 1786.3 764.897C1785.47 765.167 1784.55 765.238 1783.67 765.1C1782.78 764.962 1781.97 764.621 1781.33 764.12C1780.7 763.618 1780.26 762.979 1780.09 762.284C1779.91 761.588 1780 760.868 1780.35 760.213C1780.69 759.558 1781.28 758.998 1782.02 758.603C1782.77 758.21 1783.66 758 1784.56 758C1785.77 758 1786.93 758.377 1787.78 759.049C1788.64 759.722 1789.12 760.633 1789.12 761.585Z" fill="#B2B6BB"/>
<path d="M1804.74 761.585C1804.74 762.293 1804.47 762.986 1803.97 763.575C1803.47 764.166 1802.76 764.624 1801.92 764.897C1801.09 765.167 1800.17 765.238 1799.29 765.1C1798.41 764.962 1797.59 764.621 1796.96 764.12C1796.32 763.618 1795.88 762.979 1795.71 762.284C1795.53 761.588 1795.62 760.868 1795.97 760.213C1796.31 759.558 1796.9 758.998 1797.65 758.603C1798.39 758.21 1799.28 758 1800.18 758C1800.78 758 1801.37 758.093 1801.92 758.272C1802.48 758.453 1802.98 758.717 1803.4 759.049C1803.82 759.382 1804.16 759.778 1804.39 760.213C1804.62 760.647 1804.74 761.114 1804.74 761.585Z" fill="#B2B6BB"/>
<path d="M1820.14 761.585C1820.15 762.298 1819.88 762.998 1819.38 763.592C1818.88 764.187 1818.16 764.65 1817.33 764.926C1816.49 765.2 1815.57 765.274 1814.68 765.135C1813.79 764.997 1812.97 764.654 1812.33 764.149C1811.68 763.644 1811.25 763.001 1811.07 762.3C1810.9 761.6 1810.99 760.875 1811.34 760.214C1811.69 759.556 1812.28 758.994 1813.03 758.6C1813.79 758.205 1814.68 757.997 1815.59 758C1816.79 758 1817.95 758.377 1818.81 759.05C1819.66 759.722 1820.14 760.633 1820.14 761.585Z" fill="#B2B6BB"/>
<path d="M1763 745V947.647H2393.69V745H1763ZM2391.17 746.982V773.314H1765.52V746.982H2391.17ZM1765.52 945.665V775.296H2391.17V945.665H1765.52Z" fill="#B2B6BB"/>
<path d="M1963.76 799.733H1812.04V919.056H1963.76V799.733Z" fill="#B2B6BB"/>
<path d="M2343.37 842.368H1994.61C1994.44 842.37 1994.28 842.346 1994.12 842.297C1993.97 842.249 1993.83 842.177 1993.71 842.085C1993.59 841.994 1993.5 841.886 1993.43 841.765C1993.37 841.644 1993.34 841.515 1993.34 841.386C1993.34 841.12 1993.47 840.865 1993.71 840.677C1993.95 840.491 1994.27 840.386 1994.61 840.386H2343.37C2343.7 840.39 2344.02 840.497 2344.25 840.684C2344.49 840.87 2344.62 841.122 2344.62 841.386C2344.62 841.513 2344.58 841.643 2344.52 841.761C2344.46 841.88 2344.37 841.989 2344.25 842.08C2344.13 842.172 2344 842.244 2343.85 842.292C2343.69 842.342 2343.53 842.368 2343.37 842.368Z" fill="#B2B6BB"/>
<path d="M2343.37 818.466H1994.61C1994.43 818.483 1994.25 818.473 1994.08 818.431C1993.9 818.39 1993.74 818.319 1993.61 818.226C1993.47 818.131 1993.36 818.016 1993.29 817.887C1993.21 817.757 1993.18 817.616 1993.18 817.475C1993.18 817.332 1993.21 817.19 1993.29 817.061C1993.36 816.932 1993.47 816.816 1993.61 816.722C1993.74 816.629 1993.9 816.558 1994.08 816.518C1994.25 816.477 1994.43 816.465 1994.61 816.484H2343.37C2343.68 816.515 2343.96 816.634 2344.16 816.815C2344.37 816.997 2344.48 817.232 2344.48 817.475C2344.48 817.716 2344.37 817.95 2344.16 818.133C2343.96 818.316 2343.68 818.433 2343.37 818.466Z" fill="#B2B6BB"/>
<path d="M2343.37 866.288H1994.61C1994.43 866.305 1994.25 866.295 1994.08 866.253C1993.9 866.212 1993.74 866.141 1993.61 866.048C1993.47 865.954 1993.36 865.838 1993.29 865.709C1993.21 865.58 1993.18 865.438 1993.18 865.297C1993.18 865.154 1993.21 865.013 1993.29 864.883C1993.36 864.754 1993.47 864.639 1993.61 864.544C1993.74 864.451 1993.9 864.38 1994.08 864.341C1994.25 864.299 1994.43 864.287 1994.61 864.306H2343.37C2343.68 864.337 2343.96 864.456 2344.16 864.637C2344.37 864.82 2344.48 865.054 2344.48 865.297C2344.48 865.538 2344.37 865.773 2344.16 865.955C2343.96 866.138 2343.68 866.255 2343.37 866.288Z" fill="#B2B6BB"/>
<path d="M2210.53 890.191H1994.13C1993.69 890.191 1993.34 889.76 1993.34 889.208C1993.34 888.657 1993.69 888.209 1994.13 888.209H2210.53C2210.97 888.209 2211.32 888.657 2211.32 889.208C2211.32 889.76 2210.95 890.191 2210.53 890.191Z" fill="#B2B6BB"/>
<path d="M1684.77 699.385L1676.24 696.283C1676.05 693.665 1675.43 691.077 1674.4 688.58L1680.98 683.272L1681.24 683.048L1681.04 682.807L1672.28 672.243L1672.08 672.001L1671.75 672.105L1662.99 674.672C1660.49 672.922 1657.7 671.427 1654.72 670.226C1654.72 667.676 1654.72 665.211 1654.59 662.799V662.54H1654.26L1638.6 659.938H1638.29L1638.16 660.162C1636.78 662.54 1635.46 664.763 1634.21 666.935C1630.84 667.083 1627.49 667.576 1624.27 668.4L1617.45 663.23L1617.28 663.092L1617.08 663.195L1603.69 670.088L1603.54 670.175V670.295C1604.87 673.122 1605.99 675.465 1606.91 677.361C1605.18 678.898 1603.65 680.566 1602.33 682.341C1601.92 682.927 1601.61 683.393 1601.43 683.685C1601.32 683.83 1601.24 683.987 1601.17 684.151H1591.35V684.237C1590.48 687.391 1589.32 691.544 1587.94 696.542V696.697H1588.11L1596.72 699.868C1596.9 702.532 1597.51 705.167 1598.54 707.709L1591.97 713.051L1591.77 713.206L1591.92 713.396L1600.69 723.977L1600.86 724.184L1601.15 724.098L1609.91 721.547C1612.41 723.319 1615.19 724.83 1618.17 726.045C1618.17 728.354 1618.17 730.87 1618.17 733.455V733.731H1618.53L1634.17 736.385H1634.54L1634.7 736.126L1638.64 729.406C1641.99 729.269 1645.28 728.794 1648.48 727.992L1655.21 733.162L1655.47 733.369L1655.8 733.197L1669.25 726.304L1669.58 726.131L1669.43 725.838C1668.42 723.65 1667.24 721.289 1666.19 718.945C1668.4 716.992 1670.3 714.828 1671.84 712.5L1681.24 712.396H1681.63V712.103C1682.75 707.933 1683.87 703.826 1684.96 699.781V699.471L1684.77 699.385ZM1621.22 691.647C1622.95 688.967 1625.78 686.825 1629.26 685.564C1631.63 684.699 1634.24 684.28 1636.84 684.34C1639.85 684.423 1642.76 685.124 1645.3 686.374C1646.66 687.046 1647.89 687.877 1648.94 688.838C1650.08 689.812 1651 690.93 1651.66 692.147C1653.13 694.692 1653.52 697.539 1652.77 700.271C1652.03 703.004 1650.19 705.477 1647.54 707.33C1646.31 708.229 1644.89 708.958 1643.35 709.484C1641.91 710.028 1640.35 710.389 1638.75 710.552C1635.79 710.881 1632.75 710.585 1629.99 709.691C1627.58 708.917 1625.41 707.705 1623.7 706.158C1621.18 703.893 1619.69 701.029 1619.49 698.024C1619.47 696.921 1619.51 695.816 1619.64 694.715C1620.12 693.658 1620.67 692.623 1621.29 691.613L1621.22 691.647ZM1602.42 682.29C1602.42 682.29 1602.42 682.186 1602.42 682.135C1602.16 682.496 1601.87 682.824 1601.63 683.186L1602.42 682.29Z" fill="#B2B6BB"/>
<path d="M1552.35 864.258L1525.48 855.814L1527.85 844.095C1524.54 842.046 1521.52 839.737 1518.82 837.202L1503.99 839.356L1492.7 818.572L1504.91 811.679C1504.42 808.343 1504.38 804.975 1504.77 801.632L1492.7 795.049L1493.18 793.464L1503 774.386L1505.06 774.507L1517.77 776.23L1519.48 774.714C1521.8 772.625 1524.28 770.657 1526.93 768.82L1524.1 757.36L1525.9 756.55L1550.16 748.226L1559.03 757.756C1563.26 757.346 1567.51 757.287 1571.76 757.584L1580.22 747.64L1606.98 755.981L1604.79 767.665C1608.07 769.716 1611.1 772.027 1613.81 774.559L1628.67 772.37L1640.15 793.274L1627.97 800.271C1628.45 803.543 1628.52 806.847 1628.14 810.128L1640.61 816.849L1629.9 838.046L1614.98 836.202C1612.37 838.782 1609.43 841.15 1606.21 843.268L1608.97 854.952L1582.41 863.965L1573.52 854.349C1569.35 854.731 1565.15 854.778 1560.98 854.487L1552.35 864.258ZM1531.01 853.367L1550.51 859.485L1558.48 850.351L1559.95 850.489C1564.69 850.902 1569.48 850.851 1574.22 850.334L1575.69 850.178L1583.99 859.14L1603.36 852.591L1600.78 841.682L1601.94 840.959C1605.66 838.615 1608.99 835.918 1611.89 832.928L1612.78 831.997L1626.7 833.721L1634.5 818.211L1622.86 811.955L1623.02 810.783C1623.54 807.052 1623.48 803.283 1622.82 799.564L1622.6 798.41L1633.97 791.878L1625.65 776.696L1611.78 778.746L1610.86 777.833C1607.85 774.893 1604.41 772.258 1600.58 769.992L1599.37 769.285L1601.56 758.359L1582.17 752.328L1574.22 761.479L1572.75 761.341C1567.93 760.925 1563.06 760.996 1558.29 761.547L1556.82 761.72L1548.54 752.827L1529.71 759.29L1532.39 770.147L1531.2 770.888C1528.35 772.777 1525.68 774.84 1523.25 777.057L1519.65 780.383L1506.18 778.66L1498.53 793.515L1510.03 799.788L1509.86 800.943C1509.3 804.736 1509.35 808.569 1510.01 812.351L1510.23 813.506L1498.81 820.003L1507.01 835.048L1520.84 833.049L1521.76 833.962C1524.74 836.917 1528.18 839.57 1532.01 841.855L1533.22 842.561L1531.01 853.367ZM1566.83 826.655H1565.83C1561.25 826.557 1556.75 825.559 1552.79 823.753C1548.82 821.947 1545.49 819.391 1543.1 816.315C1539.82 812.113 1538.41 807.169 1539.14 802.27C1539.68 798.692 1541.39 795.287 1544.11 792.378C1547.86 788.392 1553.23 785.524 1559.32 784.244C1563.46 783.346 1567.8 783.234 1572 783.916C1576.83 784.697 1581.3 786.482 1584.93 789.086C1586.91 790.448 1588.61 792.047 1589.95 793.825C1591.42 795.657 1592.51 797.665 1593.17 799.771C1594.62 804.191 1594.27 808.86 1592.14 813.11C1589.97 817.383 1586.14 821.006 1581.19 823.45C1578.86 824.615 1576.32 825.481 1573.67 826.017C1571.43 826.465 1569.13 826.679 1566.83 826.655ZM1566.64 787.363C1564.6 787.368 1562.56 787.577 1560.59 787.983C1555.61 789.04 1551.25 791.37 1548.16 794.601C1545.95 796.95 1544.55 799.702 1544.09 802.597C1543.45 806.657 1544.61 810.764 1547.33 814.247C1549.15 816.606 1551.65 818.595 1554.63 820.055C1558.05 821.714 1561.95 822.641 1565.96 822.743C1568.13 822.805 1570.3 822.602 1572.4 822.14C1574.59 821.709 1576.65 820.999 1578.56 820.037C1582.61 818.059 1585.74 815.112 1587.5 811.629C1589.27 808.148 1589.58 804.312 1588.37 800.684C1587.26 797.303 1584.91 794.251 1581.62 791.913C1578.6 789.803 1574.92 788.352 1570.95 787.708C1569.53 787.478 1568.08 787.363 1566.64 787.363Z" fill="#868A91"/>
<path fill-rule="evenodd" clip-rule="evenodd" d="M1562.84 676.862C1562.51 671.219 1561.21 665.639 1559 660.266L1572.94 649.116L1555.12 627.367L1536.45 632.71C1531.17 628.908 1525.28 625.675 1518.92 623.094L1518.73 607.48L1486.58 602L1478.19 616.166C1471.02 616.426 1463.92 617.436 1457.09 619.164L1442.91 608.221L1415.26 622.215L1422.05 636.915C1417.21 641.065 1413.11 645.7 1409.82 650.701L1389.95 650.856L1383 676.138L1401.01 682.738C1401.34 688.379 1402.63 693.959 1404.82 699.334L1390.91 710.484L1408.7 732.232L1427.39 726.89C1432.68 730.692 1438.57 733.926 1444.92 736.506L1445.06 752.24L1477.2 757.72L1485.59 743.555C1492.76 743.298 1499.86 742.285 1506.67 740.539L1520.87 751.499L1548.53 737.506L1541.73 722.806C1546.58 718.658 1550.67 714.02 1553.96 709.019L1573.81 708.864L1580.78 683.583L1562.84 676.862ZM1516.69 684.565C1515.22 689.933 1511.74 694.836 1506.72 698.653C1501.7 702.47 1495.37 705.031 1488.49 706.012C1481.61 706.992 1474.53 706.348 1468.13 704.161C1461.71 701.974 1456.28 698.343 1452.51 693.724C1448.72 689.108 1446.77 683.712 1446.9 678.221C1447.01 672.731 1449.2 667.39 1453.16 662.877C1457.15 658.365 1462.74 654.88 1469.25 652.866C1475.73 650.853 1482.86 650.4 1489.67 651.563C1498.81 653.124 1506.81 657.478 1511.87 663.666C1516.93 669.855 1518.66 677.372 1516.69 684.565Z" fill="#B2B6BB"/>
</g>
<defs>
<clipPath id="clip0_112_81768">
<rect width="2429" height="990" fill="white"/>
</clipPath>
</defs>
</svg>
